/* XPM */
static char *result[] = {
/* columns rows colors chars-per-pixel */
"128 128 58 1 ",
"  c #040404",
". c #080804",
"X c #0C0C08",
"o c #100C08",
"O c #18140C",
"+ c #040810",
"@ c #0C0C18",
"# c #100C10",
"$ c #141010",
"% c #1C1414",
"& c #181818",
"* c #201C18",
"= c #202010",
"- c #28201C",
"; c #282818",
": c #30301C",
"> c #101420",
", c #14182C",
"< c #182034",
"1 c #242020",
"2 c #2C282C",
"3 c #302420",
"4 c #342C28",
"5 c #3C3824",
"6 c #3C302C",
"7 c #383434",
"8 c #403430",
"9 c #483C34",
"0 c #403C3C",
"q c #444028",
"w c #4C4C2C",
"e c #4C4038",
"r c #605C38",
"t c #202840",
"y c #4C4848",
"u c #544440",
"i c #5C4C44",
"p c #585050",
"a c #64544C",
"s c #6C5C50",
"d c #60585C",
"f c #686440",
"g c #786458",
"h c #6C6064",
"j c #746C70",
"k c #E06830",
"l c #E47838",
"z c #806C60",
"x c #8C7468",
"c c #807478",
"v c #947C70",
"b c #E88440",
"n c #887C80",
"m c #94888C",
"M c #988C90",
"N c #A09498",
"B c #A89CA0",
"V c #B0ACAC",
/* pixels */
"&3*7j8e8e9e&%*---3-4647243634474343436743643334746673-2342462474311&1&1111&1&&&&&1&&&11&11211121222111--11-*1--*****2111*%%*%%%%",
"&4*1d88ypai&%3233-44362464463673634336742733343646663-423362468467088ypaie88e8ueipidhaaphaidipiapdpdpdpdpuipiipuuuuaidapaiipe889",
"14*-je80iee&*2----3626764463237634663427463376306172433242432426699e80iee888889yeyi9pduhsadipydphjdp9pyaaadhpsuiuuiudaaiaiau9669",
"&4*3jy9yeei&%33--3446244737246734374-42446436447643743442672760779py9yeei88upe88u9uuuauudjadapuadhadyepyhpihchiuiiiiudiiapii9689",
"&7*3d9uyeeu&%23-3-336747376464624763-3277443664722647373776764726uu9uyeeu9iuuueu99eeaduedpcspypupadjdyehpdpasnasaaaspiiaipuue69e",
"10*4j9uuip9&*24-33-43446476434327043*3686764776016173447676774367ee9uuip9puddapdi98uhpiihijMhadadadadhaasasggcMcjghgdhaipiiu9eie",
"17*4c9upiip&%-23333440744643034064633-407044267272733274464803407eu9upiipih7&############$###########################&0jdiyu9iuu",
"17*4jpuiuua&&3334233463464877304666333677266776706274322664776076iupuiuuaj1############################################3jdpieuie",
"17*6ndupiaj&%--33444767868467637446343482780703262627372644774740pudupiaj7&##$p=X##&p2&##&p2&########################$#&7jiaeiiu",
"&6*4cpuppdd&%3234333444764404674764474670780020367272447644047767dipuppdd&##$&p;O1&&p2&1&&p2&o%%**%*%***1%*%*%%%%%*%$%$*1dsaedii",
"&4*8jhidiaj##1323737472677372774742647277267676723*243277737274-3pahidiaj$$$1&d:&17&d7&17&d7&$%*-%*%-*1--1*%%*%%***%%$$$1jaiupah",
"17*8nahidhjo%121433473247276747737-374747772737262742474727672732hdahidhj$$12&d:O12&d2&12&d2&%**%-%-***131***%*%**11%%%$-jaiiiid",
"#1*9chahdado*234324746-2742747777474476727274674272473747347477--hihahdad$%21&h2&21&h2&21&h2&%%*****-*-32-*-**%%*1*-1-%%-dsaiaha",
"#2*9nahdhhj$%242243672744376744272-32347373272744747*47-437772437haahdhhj%&2&0Nd0#&0Nd0#&0Nd0#%%--%*333433-**%*%*-*1--%%3jsauaas",
"#3*ejaahcdc%%-223247264746373737232-*722737-6634427-7727-73737343paaahcdc%%72#p1#12#p1#12#p1#1%*--*-32737---****---2721%4csciahs",
"&4*9chdhdhj$%*-*272764-27476774274-2*3343722734327223347447772437dshdhdhj%%21&j7&71&j7&71&j7&%%*3-*3343723-3-**---33273%8jsgsdsh",
"&4*ecjcdjdn$%**22344-643-727474474--*34724742273324-3-34-72727443ccjcdjdn$*23&j:&22&j7&22&j7&*%-2-*347247433*3*-2-3-342%6ndjacjc",
"&7*9jhhchpz$&*--*44743643474473727---3337747-422333724-3347472342hjhhchpz%%22&c7&22&c7&22&c7&*%-3--3337747-43--22734-32*9cahshgj",
"24*egjsjydz%**-**37236-32727423774-3-244274433432272-432243727377hsjsjydz$*33&c:&77&c0&77&c0&-*-43-244274433433272-4327*8jdsjhjd",
"22*ejdhsdpz$*1--*324344343747442723-*44774743434372434-7432274427hhdhsdpz$*22&n7&22&n7&22&n7&-*-3-*44774743434372434-73*9nadshah",
"14*ysdasssc%%2-3-37474724477243774-3344767724743422423--447724377dhdasssc$*33&c7&72&c7&72&c7&3*-433447677247434274-3--2*0csdaadh",
"24*ejhsdhpz$*233-3273727447273-724-73247274247443243*3*3447273-72hshsdhpz%13-&j:&27&j7&27&j7&-*-773247274247443243*3*33%ynsaiahd",
"22*ygahhaig%*17332747477374763*272-7-744772442734724*2-3374763*27aiahhaig$1-3&j5&22&j0&22&j0X3-327-744772442734724*2-32*0jdiaghd",
"73*yssaaudg%*223-474674737776-*42334-434272237743773*-*337776-*42iusaaudg%1-2&j:&72&j7&72&j7X3-444-434272237743773*-*33-ycdsdhhp",
"67*ehpau9ig%-273-372777432677-*767473433347747444743*--332677-*76uepau9ig$13-&j5&22&j0&22&j0&3-2473433347747444743*--32*ycsaaipd",
"63*yjdpeu9s%-124*32772733767633773343443-3443442323-*-3-376763377aidpeu9s%*--&j0&77&j0&77&j:X432443443-3443442323-*-3-3*0jdauidp",
"63*ehdi9ees%*223*3427643476467426347423332274736443-**--476467426hidi9ees$1-*&h5&72&h7&72&h7&73227423332274736443-**--4*ygauihdd",
"64*0cpueuis&-723-347674774674734747247-3-7274742473--*--746747347dapueuis$1-*&j7&77&j7&77&j:X4447247-3-7274742473--*--3-yjuipupd",
"66*9mie9ies&*223-374762674476734767273-4-4244237223***44744767347aiie9ies$1**&j5&72&j7&72&j:&6422273-4-4244237223***443-ysuiupdd",
"44*8jeieeia%*233*3324777477466337447243337224744743---32477466337dieieeia$1-*&j5&72&j0&72&j:X42777243337224744743---322-pjiupdsp",
"44*8juueeia&%323*32327677737664374727733-4247234674**343773766437dauueeia%1**&j7&22&j7&22&j:&227227733-4247234674**3432*ygpihdpi",
"33*8zi9eiis&*-33*-4372724764663473742674-2722433744*-344476466347ddi9eiis%1-&0Nd0#&0Nd0#&qNd:#22242674-2722433744*-3444-ysphiidy",
"64*9neu9uah&*32-*-342777476777-47470232432227434473--447476777-47daeu9uah$1-2#p1#12#p1#12#w=#17727232432227434473--4477*phdipdud",
"73*9zud9uaj&%-3---3372746767073773724244344724-3424-3724676707377puud9uaj$13-$j0&27&j0&27&j0&222724244344724-3424-37243-yjuihpup",
"70*8xhuuadh&%*23-344272744476076607676743422733437433274474760766aihuuadh$-44&h7&-2&h7&22&h7&22247742434227334374332743-yhahpaed",
"67*eziueuac&%2343423727244476707070767672427743-342-4243744767270dhiueuac&143&j7&-7&j7&27&j:&2274637272427743-342-4243210cjdde9u",
"66*8aideacm&*-2344747776474670042677407224733343444*3734474670772adideacm%*32&j0&32&j0&72&j0&72723467224733343444*37343-9mddpe9i",
"67*9gaheshj&%2-34724427466476040747074072023423-334-3337664760207daaheshj&132&c0&32&c0&72&c0&7703742272723423-334-33373-yjipdi8h",
"47*8ziiessj&*473677437774666770747466440243-743*33732373466672020ddiiessj&*27&c7&37&c7&77&c:&447244777243-743*337343-32-9jydiu8p",
"47*8cisussc&*343267446747607607467047622044-323*--333237720760772hhisussc%142&c0&22&c0&22&c0&247744022044-323*--33323-3-9ziyua8i",
"46*enaauahc&&274747347760670747074607670743-374*-432-233267077207ddaauahc$*42&j0&42&j0&72&j5&430743627743-374*-43--2332-9nu8ui8u",
"70*8zisiaam&%374342342767707704770774707043-347-333-3-32770770727daisiaam&137&j7&47&j7&77&j5&432763707043-347-333-3-32410zie898e",
"37*9gaduaac&%234237347670667060477606770743-374-3-----27066706072piaduaac&142&c7&22&c7&22&c:&334064072743-374-3-----324-8xhi8899",
"66*8jpiudij&%34423237267607777760667476724434273333-2-32607277760dppiudij$*46&c0&47&c0&77&c5&--446462724434273333-3-333-0zaa8988",
"76*8saiiaaj&*2377474777667707070666477770433340243-*--73627070706dyaiuaaj&134&n7&27&n7&27&n7&3-34730770433340243-*---33*0ahi6668",
"74*8spyiadh&%72267737777077707767466470770434774333232-7277707767udpyeadh$*24&c7&72&c:&72&c:&---37477774434774333-33--2*8gid6668",
"24*9sduidpg&%277747467077762707764746777074446773432-322726270776yudu9apg&134&j7&24&j7&27&j:&3*-46674707444677343*-34-2%6ziu9886",
"74*9gi9uppg&*4724643767670707776744407077743462443-*-2-7707077767ddi99ppg$*33&j0&24&j:&27&j:&-333344777743462443-*-3-24*8cde8966",
"24*9ge90idz&%2247473276767066476744470770774477434-**272670664767pye9eadz$*42&j7&74&j:&72&j:&3--3447670074477434-**3-23%9ni96488",
"26*9g8euaaj&%237242476707008737076764707740446734-***334700873707098eeiaj&133&j0&27&j;&27&j:&333346762740446734-***3343*8zu89986",
"26*8g89eads&&3747276760707080-77767470777724468443-*--2207080-777ee899uis$*43&j0&43&j:&72&j0&4-43670777724468443-*--327*8ge68988",
"76*9geehpdg&%727777460767766036646740700677466762-***333776603664ypee8uig$*33&h7&73&h5&72&h7&336367670677466762-***3332*8je68869",
"23*8jyipaag&*247476787776244046673777674308464743-**-24-624404667eeyi9uig$*-3&j7&74&j:&72&j7&436467704308464743-**--4-3*9s969989",
"27*9hyiaadz&%2744276670677467366477470734776766643***343774673664epyi9udz$%-3&c7&43&c7&77&c7&4373607634776766643***343-%8se69989",
"24*8hdaaiig&%337407667746634437674476267467677744-**-3236634437670pda9uug$%34&c0&43&c0&27&c0&646467607467677744-**-323*%9se68ee9",
"26*9hdudads&*2424077467446346374764774706707606743-**472463463747yydu9uiso%43&j0&44&j:&77&j0&4304747706707606743-**472-*8ge88ed8",
"26*pjdiiadg&%3277267460367336476467434678086077443-*-323673364764padiuiig&*33&j7&43&j7&72&j7&6474646678086077443-*-323-%9gi8eui8",
"18*9hyiiaag&%-2447666463433370706803464866067670443-234-433370706dpyieuag2*--&d0&43&d0&77&d0&64443464866067670443-234-3*8ge8euuu",
"48*yhpiuias&%-3272766474333460866807334740660607064*3333333460866dppiuiasd2**&y7&33&y:&33&y7&33333334740660607064*3333-%9gu9euii",
"20*yjaaipig&*42376646764443400969070434707277872733-34-3443400969ddaaipiajnmccjcczjczzggxvmNVj9-24434707277872733-34-33%9gi9iuii",
"70*0jiduaps&*33347666666334307864077344677707070764-74*3334307864apiduappahgjgjhsjhjhjhhjccnBg0*%2344677707070764-74*3-%ejp9pdyp",
"27*0jypidds&*--377464674347670064707463674676727073343*4347670064puypiadaiassshdhdshgshhshznBj9%$2463674676727073343*43%uhauipyu",
"20*0hyppdps&*--344463777404402004077444006764067276344-2404402004ppyppdpauaaablksikslkbbshscNg6%$2444006764067276344-2-*uhauipyp",
"70*yjidiidg&*-3344374707477674407070466844647767766472-4477674407ddidiipiuidibgbagbbsibkagjjBh8*%2466844647767766472-431ehdiidud",
",4*0gpipdpg&134-2746677677464486642707044767747074734433774644866appipdpiueidaiashdasadishgcNg6%$207044767747074734433-*ejpipupp",
"t4*0hapiads&*--3774646760467600444770400204404777364443-046760044ppapiaauauiadaihsdhsahdsshcBs8%$20400204404777364443--*yhaudpdp",
",4*ygpiuips&*333476666627676476364707460076743476464773-767647636dipiuipiuuaaiaiarsrsashahdjBs6%$27460076743476464773--*yhauidid",
">3*ygiueuds&*4237664676707077764432704687034336666667433070777644adiueuiuuiiiaiuaasddshshdhjBs4%%2046870343366666674333*yjdidaai",
">4*0gaauias&%-327276647787727074342709690043444676466732877270743diaauiuui--3*33*33323--34468-%o.7096900434446764667324*0jpiaiui",
">3*9jdpeddj&%-244766646060660474333086680643334746672723606604743aidpeueu3    &#    &#    &#    &086680643334746672723-%0jdidpep",
",4*9ziieaps&%3277267460767606684643086070733343646667442676066846iuiieeui.   #71#  #7=#  #71#  #2086070733343646667442-%0hidau9u",
",4*9ziuuads&*2424077467770680876646684709633763064762772706808766iaiuuuua.$o##p1&###02&###y2$##126847096337630647627723%yjdpdiei",
",4*0cpi9ihh&%3374076677606707607747434009643644764770424067076077uipi99ua.&1*&h2&11#d;&11%d:o11244340096436447647704242*0ghdpded",
",7*yzdu9udg&%23442766707776764706763-3890443664776670473776764706uudu9uigo*--&j2&27&j2&27&j7$2-323-38904436647766704733%0hdpiiup",
"<0*ecuu9upj&*24747678776676774367063*3686764776076672447676774367uiuu9eujo*3-&j7&32&j:&72*j:$-3473*36867647760766724472%ygpiipud",
",7*emui9ids&%-2777746077464803407763*-407044267778767474464803407euui9uiso*3-&h7&77&h7&77&h:$34363*-4070442677787674742*ygdiipip",
">7*9mue9isc&&33472767607664776076763*3670066776706477772664776076uuue9eac$*33&c2&77&c7&77&c5%33443*36700667767064777727%0giuippi",
">7*9n9u9uhj&%--324247678644277770763-3480080707067672747644277770ei9u9usj%124&c2&47&c:&27&c:$43643-34800807070676727473&yjiuidip",
"@6*8juueupj&%22374334767644047267644-4670780070767424273644047267ueuueepj$144&j7&77&f0&77&j5%34744-46707800707674242732%0ziiuppd",
"@4*6c9e9udh&*33246334677744700767443-3607660767672374742744700767ei9e9udh&*22&j7&62&j7&72&j:%34063-36076607676723747422%0zaipipp",
"@4*8c9ueiac&%23474344702643477774433-4670707076767346427643477774ue9ueiac$147&c0&77&c0&77&c:&30703-46707070767673464274*0cdididi",
">6*8n9u9usc&%-2267434777644470747664-4600726777076474777644470747ee9u9usc$*44&n7&24&n7&22&n7&44074-46007267770764747772%yzidpypi",
",4*6nye9isc&*-347434477774344777747434607077707777377622743447777ueye9isc%124&c7&77&c7&77&c7%47764346070777077773776227%0capipip",
",3*7ji9eaam&%3442343426043334077037436770707766777474773433340770eui9eaam%*22&j7&42&j7&22&j7&32784367707077667774747732*0msdyjdi",
",4*1du9uihm&%2342333476724344272646434707777067627323244243442726uiu9uihm%137&j0&34&j0&27&j0&37704347077770676273232443%ymagpipi",
">4*-jiiuhan&%3743433427473-3472704643677707660767437324373-347270euiiuhan%*47&j0&47&j0&77&j0&40744367770766076743732432%0nscadhi",
">3*3jihuadj&&-747473477743-3407073643440777077672432434743-340707uaihuadj$*73&c0&44&c0&72&c0&47764344077707767243243473%0jdgshpd",
">3*3dididhc&*3432674467473-347726346-376077767677437474773-347726auididhc&124&c7&37&c7&77&c7&40776-37607776767743747472&0chhdgdh",
">4*4jhauadc&*4736774377323-440220444-377767667476447623423-440220uuhauadc$-33&c0&23&c0&22&c0&22764-37776766747644762343*ycjhjhjd",
">4*4cdhuadn&-23-343733*347-342777444-477776664777347763747-346377uidhuadn&1-3&c0&34&c0&77&c0&77774-47777666477734776374*0ncgaiah",
",4*4jaaihhn&-37333-433-32432727224743470767466472442743-243274722uiaaihhn%-24&n7&33&n7&22&n7&277743470767466472442743-2%yngaiuii",
"t4*6nddahjh&-34373*4443433374227643734777764746767474432333742376uaddahjh&1-3&c7&33&c7&77&c7&7727734777764746777474432-*ysiisuup",
"t3*4chdidhh&123424-243-347724272736746747674442727324343467646367idhdidhh%-23&j7&44&j7&22&j7&27677467476744427273243432%ygsihiid",
",7*8jipidpj&-3472374734337274342477732747674447472443-36374744434iaipidpj&143&j0&37&j0&27&j0&2777732747674447272443-32*%djsiduip",
",4*8ndiapdj&-34277-4243-4274474474273773707676472733-243747473342pidiapdj%*23&j7&72&j7&72&j7&776273773707676472733---3-%pzaisiap",
">7*9ciiadpj&*7744-737447477273427277474-777674777243-*47474744343adiiadpj%*23&j0&24&j0&27&j0&27777474-777674777243-*-23*dgsaiiad",
">2*9nddshdj&-442372447737727274767473743664674272734-*23427674476paddshdj%134&j0&72&j0&72&j0&747773743664674272734-*33-*psaadaip",
",7*ejppdahc&*2347274264727477273777747346673777672323272777747337pdppdahc$*33&h7&72&h7&72&h7&7462747346673777672323*323%ygaadiid",
",4*9cdiadph&%3374072627606707607747434772643644764272424067076077ipdiadph%122&j7&72&j7&72&j7&4474447336647747774233*332*pgpapadp",
",7*echaphdj&%23442762707276764706763-3877443664272620473776764706adhaphdj$*22&j7&72&j7&72&j7&7467767437674476267473-322*ysdapapd",
"t0*9jdhaphj&*24747678726676774367063*3686764776076272447676774367ppdhaphj%127&j0&77&j0&77&j0&7677747437476477476743-327-ysppapdp",
",7*egjdsapc&%-2777746072464803407763*-407044267772762474464803407ahjdsapc%*12&j7&22&j7&22&j7&2767436247646743467243*322*yhpdpajh",
">7*ejhjhadm&&33472767607664776076763*3670066776706477772664776076jjhjhadm%*2&0Nd0#&0Nd0#&0Nd03774337733676733727723*421-ygdhhjhp",
">7*yshsjjhc&%--324247628644277770763-3480080707027672747644277770snhsjjhc&121#p1#11#p1#11#p1#16474767*-776234777273-372-yghjjdhp",
">6*ejddajhj&%22374334767644047267644-4670780070767424273644047267acddajhj*122&j0&32&j0&-2&j0&26743324*-677737476474-322*yshjdddy",
",4*ygasdhhh&*33246334677744700767443-3607660767672374742744700767ijasdhhh%*12&h7&2-&h7&33&h7&2673-272*36747377474723371*yghhddpy",
"<4*ysaddudj&%23474344702643477774433-4670707076767346427643477774dhaddudj*1*2&j7&2-&j7&43&j7&2274-427-3727447273723-332*ysdypdp0",
"<6*ehiaappj&%-2267434777644470747664-4600726777076474777644470747ihiaappj%112&j0&3-&j0&-3&j0&7743-47734277442747473-3-2%0zpppyyy",
",4*yjuiipuc&*-347434477774344777747434607077707777377622743447777iduiipuc***2&c0&*2&c0&3-&c0&7732327244722343443423*--1*0gdupp0p",
">3*ehaiuipn&%3442343426043334077037436770707766777474773433340770uiaiuipn%%21&c7&31&c7&31&c7&7447-47737273423-23223**-**yza90yey",
">4*0cuaueic&%2342333476724344272646434707777067627323244243442726iduaueic%*1&0Nd0#&0Nd0#&0Nd0#474-72732747433333724*--*&pcd6yy9y",
",4*9mp99iuj&%3743433427473-3472704643677707660767437324373-347270aup99iuj$*%1#p1#11#p1#11#p1#1437-47447272--343-2-3****%yji9098e",
",3*8jde9iag&&-747473477743-3407073643440777077672432434743-340707uide9iag%*%1&j0&*1&j0&71&j0&-2*3-47242222323-22-2-**-*%pzaey98y",
"t3*8jiu99ij&*3432674467473-347726346-376077767677437474773-347726iuiu99ij%**%&h7&-*&h7&22&h7&33-32327373232-3----3-*%--%pjau098y",
"t4*8zdpi9ec&*4736774377323-440220444-377767667476447623423-440220uidpi9ec$*%%#j7&-*#j7&72#j7&**-3-272427213-4-1-721*%%*%dzau0969",
",4*9niuueig&-23-343733*347-342777444-477776664777347763747-342777ieiuueig$1%*#d0&-1#d0&71#d0&*3*3-1212122333--2--2*%%*%-djpuy988",
">4*9ziuepuh&-37333-433-32432727224743470767466472442743-243272722uuiuepuj$%1%#d0&-1#d0&21#d0&%-*%-2213221322133321*%%%*0hzap0960",
">4*8xuyepdh&-34373*4443433374227643734777764746777474432333742276euuyepdc1$%%&h7&**$h7&21&h7&**%%*%121312321*33111*-%*8pdzdu0689",
">3*ezypuiah&123424-243-347724272736746747674442727324343477242727ieypuiany2$$&d7#%%$d7#1&&d7#o$%%$$*%%%*%**%*****%*%-0dddjay9689",
"@7*8apueeuh&-3472334734337224342477732747674447272443-32372243424ydpueeucde641p23362p2743&p1-3434443443------3-3--34888iNgdy9948",
"@4*9gupuyid&-34273-4243-4274434424273773707676474733---3427443442piupuyidzye06064448080987884489899uu9eiu998866844869usnpsae9844",
"+2*8zyue9yp&*7744--37443474223423277474-777674747443-*-2472323423ieyue9y9dgssssaassgczgghhsdssgsgssgsssggzggscgagasjgcgau9e88688",
"+2*8cpee69p&-4443-*4473342272-4762473743664674272734-*3343272-476iepee69y9u88iuudaipdieie9u899yupdieidahsaiuuipeiyppyaai98u98344",
"+7*enp8e68p&*2343**4764327424-33772747346673777672323*3227434-337yip8e689u689i8euppuee89y8666880y9uidpuphiaieiueyueedpuu98883434",
"@2*8zy9y6ep%-223---3474474267333427447336647747774233*337423733340ey986e8ee9u6euuauuu8ee98848486999pyiuiieieeiuuy0udpup986684334",
">7*9g99u08y&-344***3227324324-4-372767437674476367474-3224444-4-3pe99u9899u948899889e989664444468eeuuu984988ueuupupuyuu984646334",
">4*8jp08809&-3--*--3242473727-3-742747437476477476743-3234237-3-7eep988998e688886886668686464444898u98849899eeeeipiupie684664446",
">4*8jp08809&-3--*--3242473727-3-742747437476477476743-3234237-3-7eep988998e688886886668686464444898u98849899eeeeipiupie684664446"
};
