/* XPM */
static char *result[] = {
/* columns rows colors chars-per-pixel */
"128 128 73 1 ",
"  c black",
". c #040400",
"X c #040404",
"o c #080804",
"O c #0C0C08",
"+ c #100C08",
"@ c #18140C",
"# c #100C10",
"$ c #141010",
"% c #1C1414",
"& c #181818",
"* c #201C18",
"= c #301C10",
"- c #202010",
"; c #28201C",
": c #282818",
"> c #3C2014",
", c #30301C",
"< c #101420",
"1 c #14182C",
"2 c #182034",
"3 c #242020",
"4 c #2C282C",
"5 c #302420",
"6 c #342C28",
"7 c #3C3824",
"8 c #3C302C",
"9 c #383434",
"0 c #442418",
"q c #4C2C18",
"w c #54301C",
"e c #403430",
"r c #483C34",
"t c #403C3C",
"y c #603420",
"u c #444028",
"i c #4C4C2C",
"p c #4C4038",
"a c #545434",
"s c #605C38",
"d c #202840",
"f c #242C48",
"g c #283450",
"h c #344064",
"j c #4C4848",
"k c #544440",
"l c #5C4C44",
"z c #585050",
"x c #64544C",
"c c #6C5C50",
"v c #60585C",
"b c #686440",
"n c #706C44",
"m c #787448",
"M c #786458",
"N c #6C6064",
"B c #746C70",
"V c #806C60",
"C c #8C7468",
"Z c #807478",
"A c #947C70",
"S c #8C8854",
"D c #9C8478",
"F c #A88C7C",
"G c #887C80",
"H c #94888C",
"J c #988C90",
"K c #A09498",
"L c #A89CA0",
"P c #ACA4A8",
"I c #B0ACAC",
"U c #B8B0B4",
"Y c #C8BCC0",
/* pixels */
"%*33&3&3333&3&&&&&3&&&33&33433343444333;;33;*3;;*****4333*%%*%%%%*4444499r99999999rtttrtrrkkkkkljllxxlttjllkkkkrrtrtttr999994493",
"r*9teejzxlpeepekplzlvNxxzNxlvlzlxzvzvzvzvzklzllzkkkkxlvxzxllzpeer*;649e9rrttttrtttrkkklllklllllxzxxcxxjjjxlllllklllkkkktttr9994-",
"r*rrpetlppeeeeerjpjlrzvkNcxvlzjvzNBvzrzjxxxvNzcklkklkvxxlxlxkr88r*;58999rkttttttkkkkkklllklllllxlxxxxxxxjllllllllllkkkkkktt99t4&",
"r*rzjrjppleekzpeekrkkkxkkvBxvxzkxvNxvjpzjNzlNZNlkllllkvllxzllr8er*;48errkttt99ttkllkkkllkklllllllxxxxxxxlllllllkklllkkkllttt9t4&",
"p*kkrkjppkrlkkkpkrrppxvkpvzZczjzkzxvBvjpNzvzxcGxcxxxczllxlzkkp8rp*;48rrrtrrr99kttllkkklkkkklllxxlxxxxxxxxlxxlllkkklkkkklp9p99r4%",
"p%pprkklzrzkvvxzvlrekNzllNlBJNxvxvxvxvNxxcxcMMZJZBMNMvNxlzllkrplp%;48rrt99999ttktlktkkkkkkllllxllxxxxxxxxlxlllllkkkkkktkrppt994#",
"k*pkrkzllzlN9&############$###########################&tBvljkrlkk*444er9t999rttttttttkkkkkllllllkxxxxlllklllllllkkkkktttttttr94&",
"p%lkzklkkxB3$###########################################5Bvzlpklp%;449j999943443343344334444:444343444443444::4443344#9t9t7t9t4&",
"k%zkvkzlxB9$##################XXX#&a-&#######&z-& ####&#&9Blxpllk%;;49t999948&333&333&&&&X&#3&333&&&&####&&&&&&&&X&&&&,99t99t94&",
"l%vlzkzzvv;##&%%*%*3%%*%3-@O-@%*43@N,O@*%%%;3&z4&+*%&%*&33vcxpvll%;3499t9444r33#&&&33$o o#&X3&&3333&&&&O&&&&&##&&#&#&O8t9949994&",
"N*zxNlvlxB$$&%%**;;3**;*5-%*-@*;;4@B7&3**%**3&v9&O;**3*3&3BxlkzxN*;349t99944p-3#X#33$oo$$&&#&#33&33*43&OO&&&&&#X&&&##%99999t994&",
"v*NvxNlvNB$&3*;*434633;*43-%*:***4&B9O3@5%*55&v4#@;;*34434Bxllllv*434t949444p6&#  $$o$oo$3&#&&433444-3O###&&&####&&##O899999494&",
"x*NlNxNvxv$3*3**35;644;;54--;-*;;4@B,&343**46&N:&@;**;%339vcxlxNx*;349499449p9&#&$$$$$oo$$ ##444344:93####&&&&#&#&&##;999499994&",
"c3NxxNvNNB$&35;;;554945;94:4*-;45&iKvt#69*54&tKvt#;**;;43tBcxkxxc3;34499t944r8&#&$$$$o$$=$o#&44443@-4&####&&&&@&4&&##5e99944944&",
"c5zxxxNZvZ$%*46;;;;6463649:94-5953#i3#336*666#i-#3;;;*;3&9ZcZlxNc56349994494p9&# $$$$$o$=$4&&4444#&-3##X##&&&&&49&&##%949444493#",
"N;vcNvNvNB$&*36*;4;5949554:44;*:5;&B9#@49;644&B9&@;5;;;43tBcMcvcN;;349499949ke&#&$$$$4+$=09&34944&#33#####&&&&&9t9&&&O899449443#",
"Z;ZZBZvBvG$&3455;956496654949;544;&B:X3345564&B,#3;5;5*43tGvBxZBZ;6349999999k,&##$$$44440t9&&44943#&&######&&&3tj9@&#;994994943&",
"B5NBNNZNzV$%*565;465649569,94;5:;5&B,X@396;56&Z,&@;;;;*43jZxNcNMB5-449999999k9&#&$$$::49qjt##9;:-33&&#####X#&-3tvt-&&5e449499943",
"v;NcBcBjvV$%*5455666456594999;9445&Z9#3496*56&Z7&3;;;;*93tBvcBNBv;8:49999999r9&#&$$34499tj7##44:4&3&3#X####&&-8jvt-&&39949999943",
"N5NNvNcvzV$3356566969695494495454*%Z:X3346;58&G7#35;;;*44jGxvcNxN55-499r9999p9##&$$44449jj9##443%&&33####&&&-9xvvt4&&#9999r9994-",
"N5vNvxcccZ$&35955594466;594945954;%G9O@599566&Z,#3;;5;;43tZcvxxvN55-49999r99p,&##$443449zj9##34443344&###&3-txxcj94##&,99999r94-",
"v5NcNcvNzV$&;656555;;;**%3549,49;;&Z:#-;96549&B7#34959;43jGcxlxNv5:-49r99999p8O#&4344449vjt##4434343t9@X#39jzvct99-&&O8e9r99994;",
"v6xlxNNxlM%&3595tNNvvNNNZBBt4:994*%n:X3;66595&Bt&@3554;4;tBvlxMNv6:64r9t9999k9%#&434334tzj9##4443434,t9&49jxccl94-33&%99r9t99944",
"z4lkcxxkvM%3456tN3oooo+ooo3Nt34945%b7#3;96443&Z7&33559;93jZvcvNNz4:-49999999k8O#&444434tjt9##4944444494@4ttjlt8-349&#O8999999944",
"v5kpzxkrlM&3355B3oo..Xo.Xoo3N399;4$n7X-44996&7Bt3&4;;9;4;jZcxxlzv5-:8tt9t99rk9;#&949444tjjt##4944499994@-99444439jt&&;99tt9t9944",
"z;xlvzpkrc%&393vo#1211<121##z4494;%bt&349993@bBv4&3;49;;4tBvxklvz;66rt999rr9ke53&4494499ztt##4444449t94&3994-449ztt&&5ert999rr43",
"v4Nlvlrppc%&343No$dd2dfhgf$#z3444*$B7&33449&9GLNt#&494;;3jMxklNvv4-49tt9t9ttu,3#&46-::94zjt##4%:-:39t99#&96t,:9tzjt&&3,ttt9t9t94",
"v;vxzkpklc%339;v#@*@*%@%%*%#z3949;&tb9&&33&3zLYNj&#349;94jBklzkzv;8:99ttt99kr93#&44994t9jz7##4494949t9,&&34,944tjz7&&3999ttt9994",
"v4xllprlpc%&363z+3%*&*&*3%3#z449453$jZbnZNsbaGnz9#&354;4*jcklkzvv45-rttkt9ktp9##&449r449jj9##444r9499t9&&&49899tjj9&&#9tttkt9kr-",
"z;vlplpplx%&34;j#&3*;*34&3&+v3449593&$$##$$#:ist3#&44454*zBlkzvcz;5-rtktttlkp,&##4494449zj9##3449449pt9###3t99jtzj9##&,ttktttlr-",
"l;vxkkpplx&&34*z$*4-434@443+v39496495*;;3;3&&-B9&&@3445*9jMzlNvzl;:-rktttktjp8O#&449444tvjt##4449449tjt&##44e4ttNjt&&O8kktttktt;",
"j4vvlrpllc&346*z$3-4-93434&$z444649546934433&zKv4&4349;;4jczNllvj4:6tjjkktjjk9%##4494499zj9##3494949pj93&34999jtzj93&%9tjjkktjt4",
"v5vxpkrkxN&&34%v%399zzzj993$z3699946454934453#i-#3@994;**zNvlzvkv5:-tkjkkljjk,3##4994434jt9##39944449t9&&439994jzt9&#O8lkjkkljt4",
"z4zkkvrkxB%&36&N$*:z3&&3z63%j&964966564644949&s7#@3495***jBklNzkz4-:tlltjkjjk93##4434349jjt##4&34934rtt&&34t489jzjt&&;9jlltjkjt4",
"v5xlNkkxvN&&34%v%394NNzz463$v399*3&O@@-@3j466&n,#@464;%*3jNxNzxpv566tllljkllk9#3&3333334ztt##3334434t9t&&4tt9rttztt&&5ejllljklt3",
"k3vNlkpkxZ%&45&z%%:95555643%v&69tjj9tt9tjz959&G:&@-54;%*3tZBvvprk3-4tjllljllu,&#&3;@5;49zjt##3*--64994t&&t8-,,t9zjt&&3,jjllljlt4",
"l4xvlvpxZH%335%j%39,4666963%z38t3*--@@@--t594&m5#@-565**4tHvvzprl48:klllllllr8O##&3@&344jz7##&3,4444447&&4943999tz7&&39lllllllk4",
"N4vxxNpcNB&&34&z3%494646443*j*5jtjjzzjjtjt596&H6#@3565;*4jBlzvleN45-klllllllp9%###&&;3&3jj9##&&4*443349&#&&35t94tj9&&#9lllllllk-",
"z;vvllpccB%&36&j4%9496995434z35t;-;3:--54j669&L6#@-;94*;4zBjvlkez;5-klllllllp8O#X#&33#4&tj9##X3&&444334##&39tz449j9##&,lllllllk-",
"l;NNlckccZ&334&zt4;*;**%%35tz&48jjzzzztzj9664&K,&@4;6-;-4jVljkxel;:-klllllllp8O##3;3333&9tt##&X53&3&344&&349t994tjt&&O8lllllllk;",
"k;vvxxkxNZ%&45&zvjjjzjjzzzzjt&498949949948499&S8#34;496;4jGkeklek;:6kzlllljlk9%##3&34494tt9##33433&3r933&49t9t999j93&%9lzlllljk4",
"p;vxlclxxH%&3534BvvBBvNvBGBN&3464898999996654&H,&-35945*3tVlperep;:-kzllljllk,3#X&49t334jt4##XX333&34t3&34949994tt9&#O8lzllljlj4",
"r;zlxvkxxZ%%3463%&%$%$$$$%&&3454949849499945&3G9#3464:;;3jCNleerr;-:kllzzlzzk93#&4t44939jjt##X33443#9j9&34444444jjt&&;9lllzzlzj4",
"e;vzzlkvlB%&4995533;3*%%*335564649993&%%*%&39Zz&#@3696*;4tVxxeree;66jlxllzzzk9#3#4444449ztt##&4344#4999#&#344334ztt&&58tkxllzzj3",
"e*vjxllxxB%3396564;694%*;54466959983&jZGJZGZZz3#334699*;4txNl888e*-4lxzcxxxzu,&##44:::4tzjt##&;-:-&34jt&4X$@:%&3zjt&&3Oepzcxxxj4",
"e3kvzjlxvN%&364649;949*;5696694;949&tB9&##ooo#+@339594;--jMlv888e38:lcxzxcxzr8O#&34:449tjz7##34,494#9z7&3   &33#jzu3&3 55pjxcxj4",
"8%jkvklvzM%&4565665946;;59488995484%Bt&o@+%$%%@334666954-jVlkree8%5-lcxccccxp9%##444644tjj9##344;44&9j9&3X #$##39tt3&##;;eklccl-",
"8%vvlrkzzM%%36854466995;66948686846&Gto+@*%*%*;;;49694594jZvper88%5-lxccccccp8O##448449tzj9##34943&39j9#3X & &&&499&#&-8e8rxxcl-",
"e%zjprtlvV%&34999956945;59484986985$B9+@%3;%*;9949456969-zGlr86ee%:-lvccccccp8O##49444ttNjt##344&4#4ljtX X X* 34949#&O;84elCccl;",
"8%trepkxxB%*469494;999656996699686;$N9+@-5;*;;49996;94564zVkerre8%:6lvcccMcck9%#&449499jzj9##434##3&tj93###&X&449433&%459xVMMcl4",
"e*pperpxvc%*35666966946;6648889966;$B4.3456;5599445;4969-jMp8eree*:-xMcMcMMck,3#&494844tjt9##433#*33tt9&33449439349&#O566xMcMMl4",
"r%jzppNzvM%&4656965589654996498465;%t3o@346;6;9495449464@zBp8ee8r%-:xMMMMMcck93#&49944tjjjt##43&#3#99jt&4tjt9t99zjt&&%485cMMMcl4",
"r%ppjlzxxM$*356495;5946696659699695$4&o-49649;99499645:4-jcr8rrer%66xMMMcMMck9#3#399499tztt##&#&&&&49tt&449jtt4tvt9#&%546xccMMl3",
"r*pzjlxxvV%%3;5566*6499669966488955&3.$439454549:9696549-jcp8rrer*-4xMMMMMMMu,&#&44:::9tzjt##&;@:-34t34&44@@,-33zjt&&X-4elMMMMx4",
"r%tzvxxllM%&456465;59966946596469495+%%35694659994949694@zcp8eppr%8:xNNNMMNNr8O#&44,439tjz7##34:334469:&%3&&3433tz7&&34e9jNMMNz4",
"e%jjvkvxvc$%355465*69996665649646949434356669;4:,9,5:9--@jMpeepve%5-xNNNMMNNp9%##334634tjj9###&&643&&&&&-&44;3&34j9&&#4ptjzMMNz-",
"e%zxvllxvM$%3;595;*594966985596996699645t94994549-9:9-:4@zMlepkle%5-xMNMNMMNp8O#&4444499zj9###44444363&X4444&&334t4##&:klzlzMMl-",
"k*vzjllxxM$%354545;549zvlzlzBxNNlvNxxNcvxcMNv969,9,449-:-zMpepkkk*:-xNNMMMMNp8O#&444449tvjt###44444t433#449433&#349&&O8rtzcMMMx;",
"l*vzzlklxc%%3;*;56559x8@--@@@-O@@@@O@$@#@O$%5z999,5:5:--@vMkrpkll*:6xMNMMVMVk9%#&43944ttzj9##&34444tr4&X9994#33&&343&%9klvVAVMx4",
"l*vvxxlzlxpzjijrjtj5xe-:49449tt994t99994444936zelvBBxvNxBZMlrlkll*:-xMMMVVVMk8O##3994399jt4#X&494439j94&94943&XX&33&#O8kxcVVVVx4",
"z5xzlvkxzvkjtjut9t74z59:49t99t999999tt9944499;l8lkzBzlzzvZBzrzvjz5-:cVVVVMVVk9;#&9943444jj9#X3493349tzv349tt43&#344&&;9cCDCVMVc4",
"k5zkjzlvvxtj7tp88rj5l*4,999t9999t99999t9949993z9pzkzNzjkzBNxklzjk566cVVMVVVVke53&4994339tt9###494434tjt&3t9j93&33#3&&58VCVMVVVc3",
"z;zzjzzvzvktr7tje8t6z54499zjvtzvjvtzjzztNN9493v67jzpjvklzBNxklzjz;-4cVVVMVMVu,3#&46:8-44994#X&*::839tzj&396ui,43944#&3:cMVVMVMc4",
"v;vvlvllvvt9rt7teet5v;:949zvj9z9zvv9jtvv9j999;z9zrtpjzNjvBNvllvkv;8:cCCCVVVVr93#&44-3&&349:###&93949tz7&-449ttt4jz,&&39lMCCVVVc4",
"z5xzzlzvzveee9eteee5z3499999999999999999994493z8kzp7zpzBNBBzlzkzz55-cVCVCVCVp9##&3&&&&###43 #&#36449tj9&3339;444zv9&&#4klxcCVCc-",
"z5zzxzlxvct98866ejj:j;49999NNjtjvzjvtz9vj9994;v9pjzkukzvZNNxkvzvz55-cVCCVVCVp,&##&&&&&###3-X#&#34349tj9#3&&9349tzvj##&-exxlcMCc-",
"v;vlzlklvvjzt9e888t:z;44,,9NjjvztBz9v999v99993N6krjkjzkzvZNxklvlv;:-cCMMMMCCp8O##&3&&&##&XO X###3344ljt&3444tt9tvjj&&O5kxxxxxCc;",
"l*xvlkpkvc&&&$$$OO@&5v94,99699949t9tt99999999B@@3%%@&&&&&jBvlvxxl*:6cCCxccVCk9%##34&####&&##&X&&&449pj93O4444949zj93&%9xcMcxcCc4",
"l;vlxxklxc$$OO$*;5499;NzNNvvvvvvvvvzvvzvzvBNz-*5*;*;;33&&tBzlxlkl;:-cCAMMxMVk8O##94#######XXX##&&3449t9&@4449449jt9&#O8MVMMxVCc4",
"z;xlvzpvvBO$3-;-9596t9-@@-@@@--@--@@@---@%@$@*6656;*6;5;4tBvlvzpz;-:cCACVMMMk9;#%t4&######XX#&#3#4349jt&&4449349jjt&&;9CCVcMAVc4",
"k;lkllpxzcO@**-869456995t8655655655565;%%**%;59665;;5*5*4tNlvxkrk;66cVVAAVMCke536j93&####X#X##&3&449jtt&O4449349ztt&&5eMACVAMVc3",
"l5lxlkkxvc$*3;:89456649899t596549868665*%*;*;54956;56*4;4jBvzvlpl5-4cVVVCAVCu,3#-lte@O####X###*-:-49tjt&O4;,-:49zjt&&3,MVFDCMMc4",
"v;klzlrlNN%&;;9489966989t886t869t969955%%;5*556965;95*;*3tMNvzvpv;8:cVVVVVVVr93#@zzj4&&& #X##X3:4449tz7&#4443349jz7&&39MVVCCVVc4",
"z;kkvkrkvM$*;:46966594896t968969e966965*%;6*649666565*;;3tNvzllkz;5-cMMVVMVMp9##&lvl8433& ###&335449tj9&&444;439jj9&&#9MMMVVMVc-",
"v;klkkrkzB%%*594995;6998899t9t8t8t66t66*%*5;56664555;*;54jMzllzkv;5-xcMVMVMVp,&#&erltj943&X##344&444tj9#&4443439zj9##&,McMVMVMx-",
"z5pkklrlvc$%3549695;58966999t8t98966885;*;6569958665;**;3jMvllzlz5:-xNvMNMMMp,3#&:,tzjt94&&##4444449zjt&&4334339vjt&&O6cNvMNMMx;",
"l5kkkprlcZ$&*659965*668698849t999t66te65*;5658964695;;*;3tMlklzzl5:6lvNNMVMMk93#&--9t994434##449&444tj93&4&44349zj93&%9ktzNMVMx4",
"z5plrkrkNB$%*56565;*;8986t9t9598t866985;*56568459445***6&jBlklvlz5:-lvvvNNMVk9##&,444443444##49944499t9&&4444339jt9&#O8zztvNNMc4",
"v6kpkkpkzB$%356599;**56689t8866999668665;69669966965;;;53tVllkzzv6-:xvMvMMNVk,&#&9933333499##99944449jt&&449434tjjt&&;9lzxjMMNc4",
"z5plrprkvN%&*65985*%*6659tt6555889869665;6t668456896**56&tVxlzlzz566xNvNNvNMk8O3&444433499t##4944434ptt&&449433tztt&&5eljjjzvNz3",
"l6kprkplxZ$&*55966;*585;69te6;566866t596594668655966*;56&tZvlvlvl6-4lvVMvMvNu9%##9%---44jjt##44---44pjt&&9;::;39vjt&&3,tzxxtMvz4",
"l5pprkrkcZ%3*;54956;85659986;569886998t5;69688656695;;66*jVlvzjzl58:lcMvMvNVr8O#&4434444jz7##44344949z7&&34-944tjz7&&39lkkjVvNx4",
"z5kpjprlcZ$&;;66985;5985846656568664999658e6866;5646;594*tZxzlzlz55-lNvVccMvp9##@4445444jj9##444;4449j9&&&446349jj9&&#9zztCMcMl-",
"l8pklrpxxH%&3556465586t599685589866t69955998985565965549&tHcvjBvl85-lvvNvcMcp,&#@4443444zj9##444&449tj9#&444439jzj9##&,vzvZzxMl-",
"l8klkrklNH$3;595956;8996885665669669tt8958989965;564;646*jHxMzlzl8:-lMcNccccp8O#@9444444vjt##4944449tjt&&444944tvjt&&O8cMMNlpcl;",
"l6pkllkNxG&&3546956;6896685685548656999t69t98t565666*595%tGcZxvNl6:6lccccczMk9%#@444&449zj9##344&444jj93&34444t9zj93&%9cVVMcljl4",
"v5kxlNkxvB%&4;94964*68t58955565986669t896te8t946;556;555*tBvMcNzv5:-lvcccccck8O#@4444349jt9##4944439tt9&&&443399jt9&#O8zvMccccl4",
"N5xklvlvNZ&&4649455;8685655566999656696e58t89865*559565;%tZNNvMvN5-:lcccxxxck9;#39444449jjt##9944349tjt&&4443&49jjt&&;9ccccxxxl4",
"v6kkNxkxvZ%33496946544999944668t65556t4658649446*;;55565%jZBNBNBv666jczlcllcke53@4444449ztt#X4944&39jtt&&4443349z9t&&5ezcjkxkkj&",
"N6klvNkxvG&&469549459464694336894656668338689945*5559454%tGZMxlxN6-4jjzxxccxu,3#X3*---44zjt##35@@@33pjt&&4;@::39j99&&3,xjjxclxj4",
"l6klxxlNNG&&395;58964999443t936695;56939t3849695*9636655%jGMxlkll68:jzvcjtpl893#@ #34499tz7###&&33336t7&&4&&43&499,&&39kjjcvZxl4",
"z8kxvvxNBN%346;*;5499896939Nz9;965;;6;4jN9394696;5zjtj334jcllckkz85-jzlktttre9##@##&*4449t4##33#+&&3;&4&&443%&##&94&&#tzNccvzjk-",
"v6lvNvlvNN&&365*-89869594&jHvt*595;*5;9zHt&464956vJGGJtvtjMclNllv65-tzjkkp485-&#OXX&X393444#X&&& #X3994#&33&33X&494##&,lzjxxxjk-",
"z9lxlzlvzB&&346%;994956433BYNt*;45;;;*tNYN3346455tvzzz443vBclvklz9:-tjztpr9;;* ##XX&&#&#4&t# &#X#&39jzt&&&33&&33tt4&&O8ljzzlxzk;",
"z8zlvlxzvB&&495*66694644&tJKv9*569;**;9vKZt&464693t,,93#&zVxlclxz8:6jcjjttp86&+#O&#&X3#4449#X34339tjtj93&4444434t9$3&%9jljzzjlk4",
"v8xvllxvzB&3346*549494533BUzj3;546;%;53jZKz&3945493&&&494vMcxllxv8:-kckl9tpr;% X#333#&9jzt9##64949499t9&&3444933q9$&#O8lllljzlk4",
"z6zxvvcNvB&&395;6949444&NIBt9&56565**6&9vGHt&49454;;;;69;zcxxvxlz6-:kcxltkpee4+X#&343tzzBzt##9994&39tjt&&4444934qq=&&;9lllljllk4",
"v6zvzzvxNZ&&445*969444&zKGtj33;5698*;433jzGZt&4449555559;jMxxvllv666kxMxjllxke;3@#449zzjvtt##4443&&9ttt&&444444*q=4&&5elllljllk3",
"z4lzvlxvzN&3394;494943jJZjz4&465595**54&3jzJZj3494658495;zMzxzxvz4-4klxccMcVi,3#@45,7ujjzjt##9;:::49tjt&&4;,::%*wq9&&3,lllllllk4",
"v5xvNxzNvB&&345;99433zJZjN9&395;6485%593&4zjZJj335554654;jcvxzxzv58:tlkkkllkr93#@93999ttjz7##44:t4949z7&&44849=%yq7&&39jlkkkllt4",
"z6zzvNxzNB%&3445433tNGvjz9&&4965694**594&&9z9zZzt33464594pczzxzvz65-rkkpkttlp9##@444;49tjj9##44459499j9&&334644%w99&&#9kkkpkttt-",
"N5xNBvcxzZ%&33359tvZGz9t3&&34955644;;;99&&&4t4tZZjt3*33**jNzvzxBN55-rpktttjkp,&#&444&44tzj9##4444439tj9#&&&44494qt9##&,kpktttjt-",
"z4BBNBNxvH%4ttjvZHBvjt4&&&&4946549656;49;&&&@-4tvKHZvjtt9pMvNNBNz4:-rkttttjtp8O#@343334jvjt##4349444zjt&&4&434440tt&&O8kkttttjt;",
"z6cGNcBBNZ&zJKGZNzt43&&&*&33&3669645953&&&&*&&@:4tzNZGKJzjMNBBvNz6:69ttkjtkjk9%#@43&&33tzj9##44t3449tj93&4&833349993&%9tttkjtkt4",
"j5xZvvxBNB%4t999443&&4&&&&4&939545646;3z9&&&&&3&@-49tttt9pcNBvvvj5:-9ttttttkk8O#@443&44tjt9##49t4444tt9&O44,3434q=9&#O8tttttttt4",
"j5lBxcvNNN%&39tzt9334&&*&33tN4&695659;&Nv&;&*&&433&@-::-@pMNNvvzj5-49tt9tkjju,3#@9;@O-9tzjt##96:--49tjt&&4;:;:94qtt&&3,ttt9tkjt4",
"t6vNxvvkvB%&&&&33494&@&&34&Gj4&3965543&jG34;&*&&49543@@@@pcvjzvzt68:rtptrtttr93#@393339tjz7##433$>49tz7&&44:49949t7&&39rtptrtt94",
"j5lNlxxzzB&&3344493&&@&349&Jt3&365655&&tJt344&&&&39544543tVzzzjjj55-rt9tttttp9##O999699tjj9##394$339tj9&&4446449jj9&&#99t9tttt9-",
"z5lvkllzkZ%&34-43&$@&&3453jB9&&396563&#9Bv3464&*&&&345433tMvkzztz55-rtr9999jp,&#@334499tzj9##$33o449tj9#&4444349zj9##&,ptr99999@",
"j;klxlklzG&3443&&@&&&49493vv4&&&99593&$4vB994943&*&&&&%&%jVxrtjpj;:-49999t99p,3#@4344449vjt##343$449zjt&&43444o4vj=&&O899999t94*",
"j5lvkxkplZ$&&&&$&@&3454939Zt3&&&9549&&#3tZj3946443&*&%&%$zZv8jjrj5:649t99ttrk93#3934&344zj9##$3$o439tj93&4&$44 4zj$3&%999t99tt44",
"p3xkzrrlkB&%&&&&&34;95543vNt&&&34964&&$&tNv3494544543&$%$jBlrtrep3:-89999999k9##34944449jt9##$$=o449tt9&&34$4334jt$&#O8r99999943",
"j;klvprlxM%%$&39443454439Zj4#&&395643&&#4jZj3454434494;;3zVxpjrej;-:8r99r9trk,&#@4944449jjt##$$=o349tj9&&44944 $t9=&&;99r99r9943",
"j*lklkrrlB&3344;543;3543Gv93#&&449694&&#39vGt445945;43;43zBxktrej*66499rt9t9k8O3#4994449ztt##$$=$$49tt4&&49944$4>=$&&5e999r99943",
"r;klvzlrpZ%%5454535;543vZj4&&&3495449&&$&4jZv3434943;;;**vVxktr8r;;34499t944r9%#&44443:4tt4#&$$$$o:4t93##44443$4q=$##5e999999943",
"e*lplkkplM%&35;54;3443zKz43#&&45556333&&$34zKz*4534;534%;vBzkjree*;344499449p8O#&4444433t93##$$$$$33t4&##44$$4o3=$o##;9994999943",
"t*kklkpzkB&&3;5;3;433zPz4t&#&;45454443&&#&t4zPz*353;3**%tNVxztr8t*4349949444p6&##&44343393&#&&$$o$o393&X#&4$o4o3=$ ##O8999994943",
"r;pkkjpzvZ3&&33;4334zHv4v3#&&33;;5;3343&&$3v4vHz43;*;%%4zvVvkt8er;;344999944p-3#X#33433-4&&#&#oo$oo$4&&## oo$oo-$o ##%99999t9943",
"r*lpjzklxGj43&&&4&9zHv9t3#&&3*%%**%%%%%3&&#3t9vHz9*&%%tvvvBxjr8er*;349499444r33#&&&3343&3#&X3&&33$o 3#&##  oo$o&3#&#&O8t9949994&",
"e%jvzkppkZvp86868558t8r965565;5;;55;5665;55;;;5;5;;56eeelKMvjrr6e%;;449999948&333&333&&&&X&#3&333&&&&X&##&o33  &&X&&&&,99t99t94&",
"6*zlkzkjlvVjpt8t8666etetre9ee66ererrkkrplkrree88e66e8rkcGzcxpre66*;449t999943443343344334444:444343444443444::4443344#9t9t7t9t4&",
"e%lpjkprjrvMccccxxccMZVMMNNcvccMcMccMcccMMVMMcZMxMxcBMZMxkrpee8ee%448rr9t999rttttttttkkkkklllllllxxxxlllllllllllkkkkktttttttr94&",
"63lpzpp8rjrkeelkkvxlzvlplprkerrjkzvlplvxNcxlkklzpljzzjxxlrekre5663;4rpet99999ttktlktkkkkkkllllxlxxxxlxxxllxlllllkkkkkktkrppt994#",
"6*jlzep8erk8erlepkzzkpperje888eetjrklvzkzNlxlplkpjkppvzkkreee5656*;4rrrrtrrr99kttllkkklkklklllxxlxxxxxxxxlxxlllkkklkkkklp9p99r8%",
"6*tpjre8pepprk8pkkxkkkeppree6e6e8rrrzjlkllplpplkkjtkvzkzre88e6556*;48errkttt99ttkllkkkllkklllxlllxlxxxxxlllllllkklllkkkllttt9t4&",
"6%zprrkrerrkr6eerreerprer88666668eppkkkre6reekpkkzkzkjkkre6868556%;58999rkttttttkkkkkklllklllllxlxxxxxxljllllllllllkkkkkktt99t4&",
"8%ppzreerrep8eeee8ee888e8e8686666erekree6rerrpppplzlkzlp8e6886668%;649e9rrttttrtttrkkklllklllllxzxxcxljjjxlllllklllkkkktttr9994-",
"8%ppzreerrep8eeee8ee888e8e8686666erekree6rerrpppplzlkzlp8e6886668%;649e9rrttttrtttrkkklllklllllxzxxcxljjjxlllllklllkkkktttr9994-"
};
