/* XPM */
static char *result[] = {
/* columns rows colors chars-per-pixel */
"128 128 33 1 ",
"  c black",
". c #080804",
"X c #0C0C08",
"o c #18140C",
"O c #141010",
"+ c #1C1414",
"@ c #181818",
"# c #201008",
"$ c #201C18",
"% c #28201C",
"& c #282818",
"* c #30301C",
"= c #242020",
"- c #2C282C",
"; c #3C302C",
": c #383434",
"> c #483C34",
", c #403C3C",
"< c #603420",
"1 c #444028",
"2 c #4C4C2C",
"3 c #4C4038",
"4 c #545434",
"5 c #4C4848",
"6 c #544440",
"7 c #5C4C44",
"8 c #64544C",
"9 c #6C5C50",
"0 c #60585C",
"q c #786458",
"w c #6C6064",
"e c #806C60",
"r c #807478",
/* pixels */
"0666056600$@$o+@@$$@@$$                                                                           o+OOO 99qq9qoX.. ..    ;,,,,,w",
"w00600065w$o@$@@@$$@o++  OO+X+XX+++++++o+===--$+++++++++o+%$=%%O$=%=X$$%$+O$o+=X-,,;----;- XXXXX  $++o+ ,00009XX.X.XX    ,,,,,5r",
"w06000000w@$o+@++@$$$++  OXO++=$++$+$-&&%%%%-;%----%*--%%--+=%%=%-%%%---%%%%--,,,,;--;;,,,$ ==X X O$+++ ,70009XXXXXX X   ,,,,,,r",
"w00000000w@@+@@$@+++o@$  ==%-=-$$-=-%------%-,,;-,---,,,,;;,-,,,;,,,----,---,-,,,,,;,,,;5>-XXX  XXo$$o+ 500000oXXXXXXX.  ,,,,,5r",
"w00066666w               $$X=+%-%-;-,;,;;---,,,,,,,;;,;>,,>,,,,-,,>>,,;>----;>>,>,,55503356,   X      X 500009           ,,,,,,r",
"w00066661w             OO-%--%--;,,,>>,,,---,,,,,>>,>;;,,,>>,>,,>>,,>>>,,--;>,>>5>5506560066 X$ XX   +  300009           ;,;;;;r",
"w06066666w             OO---,-,,;;>;;>,,;;;;>,,,,,5,,,,,,,,555,,,56>>,>,>;;;,565355066500000 X =  +  XX 50000w . X       ,,,;;,r",
"w06161100w        XooX %%%--%--;,,>>,,>>;;--;,,,,>>,>>,,,555,3>5550065556>>3560000000000ww00-  =  +  O$ ,00009OOOOooX    ,,;;;;r",
"w61166660w  @o$$+$@++o$--;;,,;,>;>,>>>>,;;;;;;>000000w0000000000www00w000000wwwwwwwwwwwwr000- XX X   O==500009OO++oXo    ,,;;;>r",
"w11110066w  ++@@$@$$ooo,,,,,,;;>,,>;,,>,;;;;;;,,,,,>>,>>,,,,5,>>>56555555>>>5000000000000000- =XX=  =o+ ,00009           ,;>,5;w",
"w61161662w  +++@@@$$o+o,,,;,,,,>,,;,>;;>,>>;>5>,,,56>>,>>>;>5;>5555556553;;;5000000000000000,  XX     OX500009        +X ;;>;;>w",
"w60666662w  oOO@@$@=%$+--%-&---------------;;-----;-;------;;;;;;>;>>3>;>;;;>>33336636666666--+X  $oOOO 570009      oo+X >,;>>>r",
"w63066311wOoXoX+@$@$$%o%%------------;;;;;;;;---;;-;;;;;>-;;;;>;;;>>;3>3;;;;;;>3333366363363--%X X$o%%. 500009     .oX+X >3;>>>w",
"w006606600++++@@O%-%%=*OO--*---------------;----;;;;;;;;-;;;;;;;;>>>>3>3>;;;>>3333333333633;--==X -&ooO 500009     XooOo ;5;>;3r",
"w50665636w@++++@O:;==-%$$------------&&---%---%%----------%-;;;;;;;;>>>3;;;;>;>>>>3>>33;;3;---%=$+-*$ o 500709 .   ooo++ 1;;>;;w",
"w655055550@$oo+@+;;--;:  +---------------%%-------------%%--;;;;;;;;;;;;;;;;>>>;;;;;;;;;;;-;;--== ++ Xo 577009 oX  oooO+ 5,5555r",
"w33000000w@oo$o++3>>3>3   o#$#%;*----------%--%---------&-&-*;;;;;;;;;;;;;;;;;;;;;;;;;;;-;;;-;o      XX ,00009.oX  ooO++ 55,>>5r",
"w36555555w@+o$$@ %$$%@%   o&################&#############             OOO#O&$#########&&*#&#$       .o ,00709Xoo  ooOOO ,5>>>>r",
"w31333555w@@$@+@ =%$%%%%     $%**%&$$&&%#$$%*%%$##%$.#$#%%$$#.        =%%%%%=X.o.#........%$;*%&*oooO.o 500079XOo  oXOOo 553;>3r",
"w03365555w$+@@@@X=%$%&=%     &$$$$%%%%$oooO%%%$o O+O  $O$%@%+. # #    %%%-==%.X$.#.##....#%%**&-;%%$.oo ,00009oOX  oooO+ >33>>3r",
"w05356365w@+@@@@X%%:;;-%     $%@@     XXooo$$%$$.o=O .oO@++++       X @@+@@@%  o++o       $O-@  o  XXoo ,00009o@O  oXo++ 11>>>3e",
"w05336363wO++@+@+%%;;;>%     %&$$      Xooo$$O+o $+$  ooo+%+X XX XX  X$$=+@%@  O++o+      %O=$  X   Xoo ,00009O+O  ooo++ >3;113r",
"w55366666wOo++O+X$%;>;;=     $%$$        X   +X   X XX XX      XX  XX $O@++O+  o++oo      %o=$  oX. oOo ,07768O++  ooO++ ;>>113r",
"w563;>136woO++O%X%-;,;;=     $&@$         X XoXX XX   XX XXXXXXX X X  XoO==O=  oO@+o      $o-$  o    oo 307009O@+  ooO++ 313;>3e",
"w66336563w%o++O=X%=;;55-     $%$%   == -=&-----,;;-;>>,,>,,,,,  XXX X O%@+=$-  $O+@@      $O=@  o    Xo ,00009O$+  ooo+@ 555555r",
"w65335030w%O@++=X%%;>13$     %%$$ = ,,,-;;;;;,5555>336366566657700; XXO=$@=:5%-&O$$%      %O*o  X    oo ,0060eO@+  ooO+@ 555555r",
"w363355550%o$Oo=o$-;>33>     %+%@ $&----50000000w000w00wwww0509w7775+%$;%>650->%+$@%$     $O=@  o    .o ,0066w$=   OO+++ 055>;5r",
"w>>;;5055w=O$Oo=X$%;>36=     %O%%$o %--;-%;;;;;;;>>333>6356566700005>6;736350--%+$@%      %O*$OO&OOOXoX ,0000w+$   OOO+@ 053333r",
"936;;1105w%o+O+$X$%;%==%     $$%=% O+ $$+%-%-----;-;;;;;;;;;;;36335560;0>6350--%o         $+;=@@*$$$o.X 50670w$    OO+@@ 011112e",
"w05;;6660w%O+OX$ @$=%==% X   %+%$$   O+++o$%%%%--*;--*;;;;;;;;;3;3>,60;0653>6::$      X   %+-$$$-$$+ .o ,0760w$X   O++@@ 813>3>e",
"w0531>333w +o$+o +O=-==% o   ++@O OO O    O##+#+#-#%%-%;*;;*;;-;;;;;60>,55655--$..    o   ++@O  o   O.o ,0707w$@   O++@@ 811331e",
"w33>*3363wXXX+++   %%+$%+OX       O O  OOO          # #OOO#######-6,65>,,>566--O     OOX        o+o+o+O 57700w$$   OOO++ 013333e",
"w3>;;>6360@++@O+    +%==@+o              OOO     #  ## OO####%;>--;,555566636--      ++o        O    +o ,7777wooo oO+O@@ 813>33e",
"w13>;33630++@++$    o$$%++oOOOOOOOoooooo .@%$%@      .$++%=%:%;>33;;-,6566656-:      O+oOOOOO+O@%oo@@O. 57670w     O++@= 813333e",
"03>;1>3119@@+    XXX=-;1              $%%%;-------%;;;;;>666666666>;;;006666665O   66;-         + X     50070w     O++@= 816333e",
"931;1>>119+@@    X X=;;;     + $$&-*-*660wwwwwwwww000000wwwwwwwwwwwwwwerrrrreewrrwwwwwwwwwe86;,-XX XX   ,0600w     O++@= 033333r",
"w55;;1311w++O    X X -;1+$+ +$++$%;-;----,,;;,>>>,;;;,;,5566555663;;;566666666606006060600607007005  X X>7000w$X   O++@= 055550r",
"w55;;>3110%O+    O X+ $ +% %%%----;--%-;;,;;;;>>6,;;;;;;>666556563;;;366665600666000600060000000707-XX X>2000w,,--555+=% 055555r",
"w55>;;3530O--$%$$$O+%%%*,;,-&--;---;;;>>>353>3536,>>;;;;>655666663;<>3666633566666700666006;36000706  XX;6005w,,--;355:@X055555r",
"w05>35555w%&%+$$%O+O--1;-;,------>5>>563365656555>;;;;>;3665666656>3<3605055060006606066065;66667777-+$+;6057w53333766>  050555r",
"w55>>55550=%%$O$+$--;;;;;;>;--;;-;,;,;-;3333>5656>;;-;;-;333666633;;13166565666666666666665,55666060- =$;6006w:--,--3>;  053553r",
"w5,;35555wo+$--;;;>,,>>;;>>;-----,;>,>11111116665,;;;;;;>33>36611>;;;133553,>63663666566563;,6550656,X-+,0066w:-----:>-O$050555r",
"w55>>,555wXX--,,>,,>;>;;;;;;;;;;;>>>5>>3>36116366,;;;;;1>3>336111>;3;3136553156611666566353>,5555565>;;;>6600w=%%%%==%%X 055050r",
"w3,;>,55>0:-555>555>>>1;;>;;;;;;;>3>>>>>5>53>3>55;;;;;;;3636651113;33563633>66666166556536>>55655366-;;;>6666w33,>,>>;-@$063363r",
"w1;;>;>>>0=@,,,>;53556555555555500077770000000000800000000000w008000000w0000w00>333>555355,>>3653333>,;;>6660w-::-:;---@+063113r",
"03>;>,>>10  $;;;;--%-------;;;;;;-;****--,*-,----*--------------*-;;;--,---------*%-&%%-;---;>;,>>>>,;;->6066w o$oooooooO0366>6w",
"031*;>3130   **;;1;------*----%---&&**&----------&------------&**&-------------;;-*$$+$>605=-;;->;>,;*;,36666w   $$o.oo  366>>6r",
"w>1;*>11>0   o  +%=;;;&%%%&--------&--&----------------------*-&*%---%%-%-----***;*+o$%3669;#;;;,>;;;**;;6626w   oo Xo   >66>36r",
"w3>;;;1;10   +XXXO*;-%-&&%;$$$$%%%----&-----;-&%&-------------&1&-%-%%%-----=;;*-*++%%%36696#-%----O+ & ;6600r   $o  o   666>>6r",
"03;;;;1>30   $Xoo+$$*%%&%*1-%--%%o+&&&&%---;-&%&--;--;;;-**;11*11&%--%-*&---*-;-;&+%-;*366e6#O;O X XX o ;6060r  ooo  o   >633>6r",
"w1>;;>13>0++@o  XX+$&$+o&X %%%---%OO$$%%-%%;;;&;=;&%%&1;1**1%&**%$&&&&$$$$$$$$;**O----;>62w0; -+ X  XO+ ,0006w@@-+%@@:$= >66>36e",
"01;;;>1330+O+o      $ooo$oo*;;3660-o       $$$$&&&%%%%&-o%&% &&&%&+%*++O %%%%;;1&O----;>66ww;o-OXO OX o ;6662wO+%+%+=*@= 6663>3r",
"0>1;;;11;0   O      o   oo -;;36691o       11-=oo%%&-%%% X%   o$%%%%--%  $%%O;OXOO----;166w91O-OXO OX + 12662w    o  o   3611>6e",
"03;--;;>;8+  o  @+  &@@@;*@;-131296* XOO@+@;;1*oo%OooOooo--=-= oX++-5,-5OO+++-O OO---;;>62w91 - X XXO o 16666w    o  o   1663>1e",
"03;;-->>;0+  X  @@  %+O@%%@1-1112q22 oOO@$@-;3*$ %ooOooOo@;%$- OOO ,566w-XX  $X OO--->;366ww;O;+ X  X o 12666w    o  o   166331e",
"0>>,--,110+  o  @@  %o@O+-@1;1112w22 Oo+++@-*2*6&&OX o oo%-o@$  O O;366w>   X&  OO----;,*;091 ;=X XXO o 12222w    o  O   121111r",
"w;1;--,>>0@  o  @@  *+@+O;+-;;122w42 +++@@$;112q;%=%@  o %*@$% O   1166w1X XO&X OX;-->;,;*091X;=XO OX % 16660w    o  o   161131r",
"0>1,--;;;9+  o  @@ X%@@+@;@;;1122w42&*+@@@@;;64w3%+%ooXoo-*%&%   XO;326w6 O X&  OX;---;,;;89;o;$X X  X$ ;6600r    o  o   ;66336r",
"0>;;--;;;0+  X  @@  +++++*+;-;636w22**O+@@+;122w3 +@%  o @;%+%O O  ;366w6 XXXo  XO---;;,>;00; ;+ O XXO& ;0636r    o  o   >66336r",
"0;1;;;1>;0@  o  @@++@@@@@-+;;;560w06->+@@@@*;20w3 %%%  o %-@%% X X ;366w3X  X&X XO---;>,>;00; ;$ X X  + ;6366r    o  o   121111r",
"w>1>;;;>;0@  X  @@       + ;,,550w00-$     1>10w3X@%+  O @-==@XXX  ;366w6X  X*  O --;;>,>;00;o;$ XO o   ;6666e    o  o   >6>336e",
"0>1>;;>;;0o  o  @@       @ ,,,>66w06-@     1124w3 @=$  o +-$$$    O;366w6    &  OO-;->;>;;0w; 1O X XX   -6636r    o  O   ;66336w",
"0;1;;;;1>0@  X  @@       @ ;-;366w66OO     1122w1 $$@X o +*$$$     ;;66w0    $    ;-;>;>;;00; ;=XO      ;6636r    o  o   >66;;6w",
"0>1;;;>;;0+  X  +@       @ 11;366r42--+%%  1122w> %--%@$@-;@@+XXX.X-336w6@+@@@X X+;-->;1>>09>X,- XXO    ;6636r    o  O   >33663w",
"w>1>*;1,,0$  o  @@       $ ;;;166w62-;+%%  1164w1 $%%%++@%;@+;%=%%%;>36w6@@@@+o   --;;;>;;q91 ;;O   o   11666r    o  o   556305w",
"0>3>;*1,;0+  X  @+       o ;;;166w22*;o$$  1122w1 %&-@+@@=-%%%oOoOo;>55w6+o$++o X -;-;;>;>w91 ;;$  X    -1636r    o  O   133331w",
"0;>,>;>,>0$  X  @@       $ ;1;666w22**o%=  1122w1 &%-$O@+--@%%+$$@$;356q3ooo++Xo+O;-;;;3>1w01 ;,%X      16236r    o  O   366666w",
"0;>;>;;,>0=  o  +@       +X;;;666w22&o O@  1>34w1 &--$=@@=:&*%OOO++;36086$$o++oO+ ;;;;;>;3w0; &;-+o     ;1163r    o  o   166661e",
"0;5,>;,;;0@  X  @@o+   o+OO;;;366w42oo OO  ;;6083 &%%++O+%%%%%+oo+O;;6003$o++@XO%  ;;;;533qw;   ;--=    -6666r    o  O   >16626w",
"0;5,>>5,>0@  o @@@XX    @@o;;;666r62*$ @+  -;3661 --:@@@+-%==-$====;:5505@+@@@+@@ $;;;;333ww1           ;3356r    o  o   >66666w",
"9;553;,>>0$  X @++      +@+-;;332w22*$$;-+$O-;223 -:-$$:$---:****:-->-,,--;+OO@@@ +;;;;133w9;           ;6665r    &  O   ;66666w",
"0>55>>5,;0+  X  ++     .@++;;;>62w04$*-1>>36666660006666660604244077970077;  ++$= o;;;;;63w0;           15633r    o  o   >61166w",
"01553>5,>0o  o  @@     O+$+-;;336w62$$*1;336788ewwrrwwwrwerrrrrrrrrrrre9997- +@@$ o;;;3505w01           -0036r       O   >66666w",
"0;3;;>5;30+  X  +$     O$++-;;>66w641$**;>>366666000666660006046979999970707 O+@$ +;;33>53w0;           ,0566r       O   ;66666w",
"9;3>;;5;30$  X  @@     o%@O-;;366w6211**;>>>36666666662666666622626247060600O%$$o o;;;;300w0-           -0550r       &   162161w",
"w;11;;;1>0$  o  $@     O$oO-;;366942*1&&----;--;--;;;;;*1111;;;1;;>;1;3>>333-*-=% #;;>;366w0;OOOoOOoooo -6600r..     o   121211w",
"0331>;;;10$  X  @$     O$@O;;;>66922**&&---;;;;--------*-;;-*;;*11*;;1;;;;;;#**=* #;;>;33600-oOOo+OOOOO ;3660r.. ..  o   111211w",
"0>31>;;>10$  o  +o   ooo$+O-;1162862 *&-&------------*;---***---;-;%;;;;-;-%#**&* #;;3;66300;+OOO++o+oo -3663r.X.XX      133361w",
"03>1;;;;30+  o  $$   .O++o+;;1122601   &-%---------*----***&**----%-;-%&-####*%** #;;3356>w0%+O+OO+++Oo -6365rXXXX X     133631w",
"w1;1;;;>30$  o  $$    OO++O;,;162663  .@@+o  @-;%&   o@@O%%%%$  oXXX$%$$$$>;-;-%- %;;6;>66w0-+O+ooOo+oO -6555rXXXXXX.    >11113w",
"w>11>*;1>0+  o  $$    OO++O-;133266>  X$$Oo  @--+o   o+@$%=%X+  o XX o .  ===-=@$ #;;3;>36w0$        o+ -6655r           112111w",
"0313>;*130$  o  @$    Oo++o,,;>66605  .%+Oo   %%oo   O@++&XXoo  o           @%=o  %-;3356000X        O@ ;>055r           ;23613w",
"01>>,>;>30o  X  oo    Oo%+O-,,566005   $$oo   --oo   $+$+&X++O         o    +$oO ----36500,0X        O@ -636>r X         ;6>663w",
"w>>>;>;;10$  o  $$    oO%+oX==----,-  o=% X   %*XO . $$++%X+O$Xoooooooo$oo     X %-;335605,:   X   X X  -6300r3OooX      >31136w",
"w>55,>;,30$  o  $@ -000www0wwwwwwwwwwwwwe+X   =%.O . &%@O&Xo%%+OOOOooOO=&% ---;-----36500,,X oX  X  O +X;6363r75o+o      ;36336w",
"w555,>>55w$+@@%@=-@-033565;555;066566666wXX   %%+$@$+=%$+%XX-=%%$$$@$$@=;=X%-,;,,,,=56550,-X X X  XXOO==,5605r0:         ,05055w",
"w55553;,5wo+$$=%%-%-63050>;3355600636636wO.   ==@@++$%*%$&X.%%=$@o@$$$@=;=--;;;,,,,,-056>5%OXXXOXX O=%%%;5055r6:+   +X   ,55505w",
"w5555>>55wo+$%$%--%-56366>;>6>>>;;;->662wOX   %$@+o-%&-%%%..X%@O       *=X-;;,,;005,-5505,-,$  XX X$,---;5550r;$X oo+X.  ,35535w",
"w55553>50w$@%-=%-==-56632>;>6;>>;;-;>116wO$$..%%Oo=%-%%$@$.X.%@O     ..=* %;;;,;;;;;;-3;;%-;% X XO O-,;*;5055r%+ OoX+XX  555505w",
"w353;;>55w@@=-=:--$-033611;11;>5;;;-1663wO$$  =%@O$$-@%@@$.+X%$O    @XX;&+ -;;,,;;;;;-;6,,--%$O XXX ,,--;3505r   oooOoXX ,55555w",
"0113>;;55w%+@++=%-@-366111>36115;;-11165r%%$OX*%@@+oX XX  XX   XO X,-XO   +X-;-%oooO$%-5>;;****-&&o o+%=13650rXX ooo++X  ,55555w",
"w1131;;55w%%@=@=,;%%61122111122>;;*11665w+@+  @$OO++X   +X  XOOO O-60O XX +X**%%oXoo$%+;=$$$       Xoo+ -5533rX  oooO+X  ,05555w",
"911>>1;139+  .  -$o-66612111216>;*1*1665w++o  $o+X+$ $=$====++=+o16705X XXO+****OO+O%%o*:%%%       XX++ -5505rX  ooO+++o ;33333w",
"q113>1;>30+     :$o*6122111122111*1*>350w+@+ .$%X+%%-----X-%%O-579999r6O+O+ o$$+ o   o$;;%%%       .oo+ %5303ro  ooOOOOX 133361w",
"w3633;>31wO     -%o-61111113122111;*1305wO$@X %%O@+@O,,,----O-579999rww;O+%XXo+o o.. o$;;$%%OoooooO.oo+ ,5555ro  oXOOooX 133331w",
"0636>;;>3wo     --o&6216111166211;;11635wO$+$ %%O+%-;-;;-----%677977097>$O=o+o.O+ooO o$>;%%%o%%%%$.ooo@ -5550rX  oooO++O 133>31w",
"w3633*>33wX     -=o&26211>;36163;;;;1650wX$$+o$@$=;;**--;-%,-;004870607;O$:o++=%$OOX$&&;;$%=     XXoooO ,5335rO  oXo+++X 133331w",
"w333>1350w+     ;;O*122605;36661;;;;6155w+$&$O%$%=;;,-;-;,,5060626660005o=-+@@%%$%++--;;*$%%      XoooO -3113rO  ooo+++X 113311w",
"w0666;;50wO     ;=O-26136>;33613;;;;6166w+;;-%%%%+;,,,,;,,5006662226606;%=*$@==%%$@+O@=;;%%%  .X. oOooO -6333r+  ooO++Oo 1>3>31w",
"w5011;;639@     %;$-361161366621;1;;>633w+%>=:=%=@>>,,,,>35563366666366;O%;+$@%=-%X .+%;;&%@       ooo$ ,>035r+  ooO++OX 121111w",
"w5505;;>>w-  Xo@;>*-6136363>336>;;;;3666w+$@Xo%-@=$>,;,0800000000w000;;-O%;@@+O$@@O  X$;;$%=       Xoo$ ,5555w+  ooo+@+X ,33335w",
"w555533630$X  X=->*-366636355336;;;;3533wo%+X %%@=:-,,;,;,,;;;;1;;;,,,,--%%.  oooOo  X@;;$&$       ooXo ,5533w+  ooO+@+  ,5;>55w",
"w030533560+  X.%-3%&633363603655>;335033wo%@ X%%+@=%,,,,,,-----*-----,,--O%   +oOO$o X@>;+$$       .oo+ -5033w   OO++++X ,55555w",
"w365633660$  .o=->*-00063665005533335033wo.   %%+oX$ XXXXOXXOOOOOOOOOXX X =   +OO++OXX@>-+%@OOOOOOXoXO+ ,5555w   OOO+@+X ,55555w",
"w631>;365wo   +%->%-06000005000533335066wo.   =%+OOOX  XXXXXO X  X  X   X =+. O   +OoX@;-@%=@@$$$$o.Xo$ ,5555w   OO+@@+X 13>;31w",
"w66666355wO   +$;;=-16000055560533335503w+    @=oXo$o     o. X O ===@=%%%$=+      @OOX@>-+@$$$@$$+ .oo$ ,5555w   O++@@+X ;311>>0",
"w363633500    o%@OO-63600036003333;355550X    @@XXX+o                 X.oO.       @O+X@;=@@+       .oo+ -5555w   O++@@+X ;311;30",
"w56365350w    O$oOO-616050505055333365530X    @@XXXo+o    o           . ooo       o$+X+;=X    .oooo.Oo$ ,55>>0   OOO++oX 13>>>19",
"w55556330w    O$@OO-32666550505,;;;;,,,,,X    @@XXX%&oOOOOOOOOOOOooo==%%=$%ooX.   X%XO+-=X.        ooo$ ,55350o oO+O@@Oo ;3>>330",
"w555333130  ooo$+OO-0666005005,;;;;,,,,,X                                          X,5,             :;;,,55550   O++@=++ ,3>;35w",
"w555555630  .O++o+o-50500500550eqqqwwwwwwwwwwwwwwwwwwwwwwwwwwwwwwwwwwwwwwwwwwwwwwwwwwwwwwwwwwwwwww0,-;,,,50550   O++@=++ ,>>>>50",
"w00000033w   OO++Oo-65005055,,,w5050555505055505005033335,;,;1;;,;,;;;*;;>533633356>03050500355055,,;,3,,55550   O++@=@o ,5>>,5w",
"w55550556w   OO++Oo*260000>5,,,w5005500305505555050503>89wwww99www9w777--;>36363663655055503055550;,55=X,05550   O++@=@O ,5555,w",
"w63656605w   Oo++oo-666063,;,,-w5550563266330050505555-66000660060000000-,;666033>,>55,5,55,3,,555,,;%+ ,55550  ooO+@%++ ;;;>;;9",
"w06606600w   Oo%+Oo-60633>;,,;-w053336212633560505533;%;;;;,,-----,,,,-=,;335;;;,,,,;,;,,,,,,;,,,,,+:$$ ,55550   Oo+@@+  ,3;>;50",
"w11366036w   oO%+oo-2363631;;;-w536122616355050305553,-%%%==--=-=%==%X+;55660wwwwwwwwwwwwwwwwwwwr>,X;-@ ,55550  .Ooo   X ;>>>;30",
"w266666060   o %+X &6211111;1;-036322116163530000005,,,,,,,;,;;;;;;;;-;3650,55353355555553>35;55w,,=-%% ,55550    .      ,>>>;,0",
"w26616116w  oXo@+ .-626311111;%03321126311655050555,,,,--,>55533;;33607-1;5-63>55555555>>>3>555,w,,+==OX,55550     X     ;>;;>;0",
"w660011110O++OO@+oo-03033>111;%96332111616665550550,-,-09000009990009906-;;-5533>33353>333>55555w,,=@%$X,55550           ;;5,>;0",
"w06666116wO$@$+$$@$$--%-%%%&$%-03231121121365005555,;,-,5530556616663636--,=63335535533;13>555>5w,-+;%$ ,55550@@@@@@@@@@ ,>;;;,0",
"w00116160w $@@O$$$$$$+@+O+$++OOw3311121216650556035,,-----%%-=%+%+%%%$$=-,;-633>335553>3335555;3w,-X,=$X,55550@@@@@@@@@@ ,;;;;,0",
"w66666060w $@@O@$@$$$+$$#+$$$OO031336632636505333;5,,-;;*--;;;--;;---;;3>;,-035;35555>333;355>1;w--+@+O ,5,,50           ,,;;,,0",
"w16666000w  @@@@@@@@$$$$O+@@@++056163136655555633,,,,,-;;-,-%--%-----%-;;-%%63333>>35>3535555333w,-X;+oX->5550           ,;;;;,0",
"w66666000w  o       $$$$O+Oo   912313366650553663>,,;;1*=-,,,-%,,,,;336O---%633>3355>5335>55>>;5w,,+@oo -;5550           ,,,,,,0",
"w00000000w         X$@@$o      036565055550553655,,;;;-1688799880099889-XXX=05563555>>5>555>;3>,w--  + X;5,550           ,5,,,,0",
"w00000060w         o$$$$+$OOOOO655555505055553355,,-;;$;1;;;;1-,,,,,--,  X-=5555555>353>5>;;5>55w-X+ +OX-5>550           ,,,,,,0",
"w56000600w         o$@X $=@$@++500550533355053305,,;*;,%-%%%$$+%$%X%%OO =--=55555555353555535555w,X+3$&+,5>,50$+@@@=$=$$ ,5,,,,0",
"w066506660         o      ++++O50005563650555>355,;;1-;;-,--;--------=-%-,%=5,535;;3;>3>555;>;350,,X,-;-,55550++++=$@==$ ,,,,,,0"
};
