/* XPM */
static char *result[] = {
/* columns rows colors chars-per-pixel */
"128 128 40 1 ",
"  c black",
". c #040400",
"X c #040404",
"o c #080804",
"O c #0C0C08",
"+ c #100C08",
"@ c #100C10",
"# c #141010",
"$ c #1C1414",
"% c #181818",
"& c #201C18",
"* c #28201C",
"= c #242020",
"- c #2C282C",
"; c #302420",
": c #342C28",
"> c #3C302C",
", c #383434",
"< c #403430",
"1 c #483C34",
"2 c #403C3C",
"3 c #4C4038",
"4 c #4C4848",
"5 c #544440",
"6 c #5C4C44",
"7 c #585050",
"8 c #64544C",
"9 c #6C5C50",
"0 c #60585C",
"q c #786458",
"w c #6C6064",
"e c #746C70",
"r c #806C60",
"t c #8C7468",
"y c #807478",
"u c #887C80",
"i c #94888C",
"p c #988C90",
"a c #A09498",
"s c #A89CA0",
/* pixels */
"+++#######=+++####+########+&######+++##=+++$+&+#+=##=++=##=+=+=++=##=+==##=+#+&+$+++=##+++######&+########+####+++=#######+++#&",
"&,e<3<313%$&***;*:>:,-:;>;::p0864%;>,:;>:;;;:,:>>,;*-;:-:>-:,:;;:,:->:-:;-*;,>>:,:;;;:>;:,>p0864%,::;>;:-,:>:*;***&$%313<3<e,&;r",
"&=0<<4786%$;-;-;;*::-:>::>;>p7065%;>,:-,;;;:;>:>>>;*:-;;>-:><:>>:<>:->;;-:*;>>>:>;:;;;,-:,>p7065%,>;>::>:-::*;;-;-;$%6874<<0=&:t",
"&*e3<2633%&-*-****;>,>::>;-;p7751$;:-,:>;;,>;2>=,-:;;-:-:;-:-,>>,-:-;:-:-;;:-,=>2;>,;;>:,-:p7751$,;-;>::>,>;****-*-&%3362<3e*&:t",
"&;e414336%$;:;  ..oo+###$$$&a0621%&&&$$$####+++++ooo++##$$&  ,,,,  &$$##++ooo+++++####$$$&&a0621%&&$$$###+oo..  ;:;$%633414e;&:t",
"&;0154335%$-:-. ..oo+###$$$&a8853%&&&$$$####+++++ooo++##$$&  ,>>,  &$$##++ooo+++++####$$$&&a8853%&&$$$###+oo.. .-:-$%5334510;&,t",
"&:e155671%&-:-XX>:2*;:::>;,,i0831%-:;;,2,,,,->>:,>-,,,,:>2,X ,,,, X,,>,>,:2::2-22:2,,:::22>i0831%-,>;::*-:>,>,XX-:-&%176551e:&2r",
"&:y157667%$*:*%%,>,*;,,:>:>,p07w3%2:;>,-,,:,::>:<::,:,>,<,,%@,,,,@%2<:>:,:,,>,::2,2,2:>><::p07w3%,>>:,-*::,2,2%%*:*$%766751y:&,r",
"&:e756558%%;:;%%2,2;;:,>>>>-p8876%,,;>:::-::,22>>,,>,2>:,,,%@,>>,@%,,:>>>,,:>::<>>:-,2,2::,p8876%,:,;::;;,-,,<%%;:;%%855657e:&,r",
"&>u05768e%$***==,,<-;,>>:>,2a0886%,>:>:,,->,:>>-,,,,:>2,>,:=$,22,$=,,::>>2:>,>22:::,,2:22-2a0886%,;>::-2::2:,,==***$%e86750u>&,r",
"&:y757700%$;$;@@:,,,;>:::;*,p6688%>>>>>,:::<:>::,:,>,<,,,>:@O>,,>O@:2::>-,>,>:,>;>:,2,:>22,p6688%>:>:,2,>,:;:,@@;$;$%007757y:&>r",
"&<ew6068e@@=:=@@;:,>:>:,,;*2i0805%>,>:>>,,,>>22,::-,>>,2>,:@O2;;2O@,:2::2-22:2,,:::22>,>:2>i0805%:*-:>,>,<:>:,@@=:=@@e8606we<&:t",
"&<u8w60we+$=:=@@;>>>>>>,:;;2p0866%,:>>,-,>-::2,;,:2,>>,,:>:@O----O@,:,,>,::2,2,2:>><::>:,,>p0866%-*::,2,2,>,>>@@=:=$+ew06w8u<&,t",
"&1yw8w080+&-&-@@::>,>:>>,;-2p8866%>:>>>,:,,:>,>:-:2,,:>,::,@O,**,O@>,,:>::<>>:-,2,2::,>,,:,p8866%:;;,-,,<,>,,,@@-&-&+080w8wy1&=t",
"&1u8w0wwe#$-:-@@>2>,2,,:2::2i8656@,,:2:22>,>:2>,-,>;::*-:2>@O2,,2O@>2:-*::;>,-,>2:>,>22:2:,i8656@-2::2:,,2,>2>@@-:-$#eww0w8u1&-t",
"&3e88wy0y$$*:*@@,,2><,:;:,>,p6768@,:;:><::>:,,>,,>>:,-*::,-@O-;;-O@-,::*-,:>>,,>,,:>::<>:;:p6768@2,>,:;:,<>2,,@@*:*$$y0yw88e3&;t",
"&1yw0w0we#$&:&@%,>,>2>>;;:;2i7850@>>;;2::,>,,:,2,:,;::;;,2,%@,,,,@%,2,;;::;,:,2,:,,>,::2;;>i7850@,2;:;;>>2>,>,%@&:&$#ew0w0wy1&:t",
"&3yey0e0u#$&%&@%2>2>>>:-*::;i0067%:>,>22:2::2:,,,;,>,,:>::,$@,;;,@$,::>:,,>,;,,,:2::2:22>,>i0067%>;::*-:>>>2>2%@&%&$#u0e0yey3&:t",
"&1ewwyw7r#%&=&@=,<,,-,::*-,:i7077%,:>::<>,>,:;:,>:2,:,,>,:2$$----$$2:,>,,:,2:>,:;:,>,><::>:i7077%>:,-*::,-,,<,=@&=&%#r7wywwe1&,r",
"&3qe9e40r$&&:&@X,2,2,>,,:>::p0660%,,>,::22;:;;>>>>,,:2::2-,%%2,,2%%,-2::2:,,>>>>;;:;22::,>,p0660%,::>:,,>,2,2,X@&:&&$r04e9eq3&:q",
"&3e0w907r#&=*=@X-,>,2,:,,>,:p7076#2::2-222:;:::>,>,:;:,>,2,%%>,,>%%,2,>,:;:,>,>:::;:222-2::p7076#>:,>,,:,2,>,-X@=*=&#r709w0e3&-q",
"&4908999y$$-*-%X>2:>,,:2::2-i0867#,:>::2>>:;;;:,:,-,-:-,,:;%%,,,,%%;:,,-:-,-,:,:;;;:>>2::>:i0867#>-2::2:,,>:2>X%-*-$$y9998094&:q",
"&3ew90w7r#&=;=%X:-*:,:;:,>,2i7656%,,>,:<>,;;;:;>::-:;:,-,:02%>-->%20:,-,:;:-::>;:;;;,><:,>,i7656%>2,>,:;:,:*-:X%=;=&#r7w09we3&:q",
"&4q8ww86q$&&;=%@::*-:;>,-,>2i0535&2::2-1>>;;,>;2>,::,::<20w;:>,,>:;w02<::,::,>2;>,;;>>1-2::i0535&:2>,-,>;:-*::@%=;&&$q68ww8q4&-q",
"&4998850q$&;:-%@,;;:,:>>,,>,i8658%:>::2<>>:;>::,>,-:;,,0w7<;;2--2;;<7w0,,;:-,>,::>;:>><2::>i8658%>,>,,>>:,:;;,@%-:;&$q0588994&;q",
"&3w78516q$*-:-%@;:2-:;,:,2,:a0037%,>,:2,2>>>,2,;;>,:,2w02,;,>2,,2>,;,20w2,:,>;;,2,>>>2,2:,>a0037%::,2,:,;:-2:;@%-:-*$q61587w3&,q",
"&4e073519$*-:-%@2>,2,:;;2,:,i7836O::2-,2,:,-,-:-,,;<4w7<,-##@@@@@@##-,<7w4<;,,-:-,-,:,2,-2:i7836O,,:,2;;:,2,>2@%-:-*$915370e4&;q",
"&3w061339$&---%%2;2,,>;:,,:2i0855O,>,2:22::-:;:,-,2w042,:##%@@@@@@%##:,240w2,-,:;:-::22:2,>i0855O:2:,,:;>,,2;2%%---&$933160w3&;q",
"&2y753569%*,-:%%;:22>>:>,:;:pw616%-,>2::>1,::,::<5w0<>,;##,2,>>1>,2,##;,><0w5<::,::,1>::2>,pw616%,:;:,>:>>22:;%%:-,*%965357y2&:9",
"&1i631639%&---%%;:>2-,>>:;>,p0515&,,>,;:><,-:;,,0w7;:,##%>>-,-2>-,->>%##,:;7w0,,;:-,<>:;,>,p0515&-,>;:>>,-2>:;%%---&%936136i1&>9",
"&<e363368$&-;;%%;;,2,>>>,:>>a7515%,2,::;2,>,:,2w022:*##%>:-,2,,>,2,-:>%##*:220w2,:,>,2;::,2a7515%,>>:,>>>,2,;;%%;;-&$863363e<&:9",
"&<e553368%$;-;%%;;>1->,::;,:i0616%>;;,>;,2,;<4w7<,-###-1>;;:>-2:->:;;>1-###-,<7w4<;,2,;>,;;i0616%,:,;::,>-1>;;%%;-;$%863355e<&:9",
"&<r613669%&*;;%%;:>12,,:>,::a9613%>:;>::22,2w042,:##%-21>:;,2>><>2,;:>12-%##:,240w2,22::>;:a9613%>::,>:,,21>:;%%;;*&%966316r<&;9",
"&1u35158w%&;-*-47777000wweyyaw515%wwwwwwweew0<>,;##,2,2,:,;:2,2:,2:;,:,2,2,##;,><0weewwwwwwaw515%yyyeww00077774-*-;&%w85153u1&:9",
"&1r50158e%$*;*,weewwwwwwwww0a7535%ww00077774,:,##%>>-,,,;>::>:22:>::>;,,,->>%##,:,47777000wa7535%w0wwwwwwwwweew,*;*$%e85105r1&;9",
"&<tw5580w%$&-;*;::-,-,:::,>2p0513%,>,:;:;;22:*##%>:-,2,>:>:,>:>2:>,:>:>,2,-:>%##*:22;;:;:,>p0515%,2>,:::,-,-::;*;-&$%w0855wt<&29",
"&3r65358y%$-;:;:-;,-,-:::,>,p0515%>,>,-:,>2:;*@@->122>>>>>>,>:><:>,>>>>>>221>-@@*;:2>,:-,>,p7515%2,>,:::-,-,;-:;:;-$%y85356r3&,4",
"&<86038yi%&*-;XXXX      @@@@a7515%%%%===-%%@:;@@:><2<>>,>:>>>1>11>>>:>,>><2<>:@@;:@%%-===%%a0616%@@@@@      XXXX;-*&%iy83068<&>3",
"&1q8w39we%$-*;@X%-===%%%%%%@p0616%      XXX ;*O@:2,22,,:>>,-2>><>2-,>>:,,22,2:@O*; XXX     p9613%@@%%%%%%===-%X@;*-$%ew93w8q1&,3",
"&<r66399e%&:,;@@,:;,,,,>:2*;a9613apappaaaiappiiaiiiipppisapappaaaiappiiaiiiippiiipippipappiaw515%:;*2:>,,,,;:,@@;,:&%e99366r<&,3",
"&<y69599y%&;:;@%-2::2:>,>,*;sw515609607w9070w070807070770609607w9070w070807070707688006080087535&,;*,>,>:2::2-%@;:;&%y99596y<&,4",
"&3u8858wy%%-,:@$2,>,:;,2,2;;i7535665655566556880656807476665655566556880656806008768886887886708=:;;2,2,;:,>,2$@:,-%%yw8588u3&>4",
"&<r69688i%$;,:$@,2;:;;-,,<-;p746443351311111153353567746443351311111153353567676565660887w352566%,;-<,,-;;:;2,@$:,;$%i88696r<&24",
"&1q80588y%$-;:$$-2::2:>>2>;-p4463335535536556567856764463335535536556567856760770866658663131154%,-;>2>>:2::2-$$:;-$%y88508q1&,4",
"&<e76506e%$;::$$2,>,:;2>,>-::%%=&%%%%%%%%%%&%OO%%&%##%%=&%%%%%%%%%%&%OO%%&%##%%%@@@%%%%%%%%%%$%%,::->,>2;:,>,2$$::;$%e60567e<&>3",
"&<986688e%&-;,$$,2;:;;<>2,-,,->,:>2;>,;;>1$$2,==,,;>:::>:,>2>,>:,>2>,:>:::>;,,==,2$$1>;;,>;2>:,>-,,-,2><;;:;2,$$,;-&%e886689<&>3",
"&<974680w%$,--$$221>:;>::,>:,,2:-:2>,2;;>1$%,,%%,:>,,,>>::,>>,,,->,>,>>>,:>:>,%%,,%$1>:;>::,>:,,2:-:2>,2::;:22$$--,$%w086479<&:4",
"&1905607q%$-,,%$2>2::;>>:,,>>,2:,;,,>,;:>1$%,2%%,>>,2,,2>,>>,,2,,>2,>>:>,>>>>>%%2,%$2::;>>:,,>>,2:,;,,>,;;;:>2$%,,-$%q7065091&:3",
"&1q61577q%&:,-%%2,>,>:,,>2,>>,-::,>,>,;::2%=-2==>>:>,>,>>>:>,>,22,>2-,>>>>:>,>==2-=%>,>:,,>2,>>,-::,>,>,:;;;,2%%-,:&%q77516q1&:4",
"&1q31260r%$---%%1>;;,><:>::,:;;::>,>:-::2,%=,2%%,:>>,-:,-,>>:,21,>,,,>>>-,>>:,%%2,=%,2::-:>,>::;;:,::>:<>,;;>1%%---$%r06213q1&:3",
"&1q<3588e%$-;-%%1>:;>:,:>>-,,>>,-,;,:,::>;%=,4==>:>>>,:>,>>>:>21,>,>->,:,>>>:>==4,=%;>::,:,;,-,>>,,->>:,:>;:>1%%-;-$%e8853<q1&>3",
"&<q<13809%%;,:%%2::;>>2::;>>::>,>,,:,,:>>;==<4==2>:,>->2->,:>212<:>:2,,:->,:>2==4<==;>>:,,:,,>,>::>>;::2>>;::2%%:,;%%90831<q<&>3",
"&1q33w70q%$,-,%%>,>:,,>,>:,,>::>,>:::2>,,:==,7%%,>:,,2>,2,,:>,<>,:>>2,>>2,,:>,%%7,==:,,>2:::>,>::>,,:>,>,,:>,>%%,-,$%q07w33q1&>5",
"&<e46788q%&-:,@%,2::->,2:::-:,,2,,2-,>;>-:==,7%%,,>>,2,,2,>>,,2,2::--,>>2,>>,,%%7,==:->;>,-2,,2,,:-:::2,>-::2,%@,:-&%q88764e<&;4",
"&1w46880r%$-,:@%;::>,>:2>:;,:>,,,2,,>>;,,>==>0==2,>>,-,2-,>>,2:**:>2,>,<-,>>,2==0>==>,,;>>,,2,,,>:,;:>2:>,>::;%@:,-$%r08864w1&,4",
"&<w08866q%$;;,@%>,-,;,:>,;,:::>><>>>,,:,;,=,,w==,,<,>,,,,>,<,,:*&;>,,2>>,>,<,,==w,,=,;,:,,>>><>>:::,;,>:,;,-,>%@,;;$%q66880w<&:3",
"&1w050809%&-:-@%>,>,,:,>:,:,:,>>,:>><-::,>-,247777000wweyyyyyyyyyyyyyyeww000777742,->,::-<>>:,>>,:,:,:>,:,,>,>%@-:-&%908050w1&>4",
"&7e06680q%$;-;@%:>,>:::,::-,,,,,>,,,,,>,::77,wyyyyeww00077777777777777000wweyyyyw,77::,>,,,,,>,,,,,-::,:::>,>:%@;-;$%q08660e7&>3",
"&1w46688q%$*-;@%,2,,2-,:,->>:22-,,,2,;,>2>,>,2::;*-;:*:;;;,2,,>>,,2,;;;:*:;-*;::2,>,>2>,;,2,,,-22:>>-,:,-2,,2,%@;-*$%q88664w1&<4",
"&4w765689%$*;;@%,,,2,,>::>,,>::::,:>,,>2>>2,:,:>:&;;;;;;;:>2<,>>,<2>:;;;;;;;&:>:,:,2>>2>,,>:,::::>,,>::>,,2,,,%@;;*$%986567w4&<4",
"&4e88676q%&--;@%>><>>>,-,,->,-,:,,>,>::,w0:,:;#@@@@XXXXXXXXXXXXXXXXXX%XXXXX@@@@#;:,:0w,::>,>,,:,-,>-,,-,>>><>>%@;--&%q67688e4&23",
"&2e605879%&;;;@%>>,:>><,>->,,:;,:->,-:ww0,,-%@@%%%%%%===-%%%%%%%%%%%%%===%%%%%%@@%-,,0ww:-,>-:,;:,,>->,<>>:,>>%@;;;&%978506e2&24",
"&2e476009%&**;@%,,>,,,,>,:,:::,;;;:;50w4,,=#=,2,;;:;&::2:,,,;>:::;*2:>,;:&;:;;,2,=#=,,4w05;:;;;,:::,:,>,,,,>,,%@;**&%900674e2&,4",
"&2w477079%&**;@%2-,,,2,><,-,-:-,,:;3ww4,>##2>,-,>;::*-,:;:,>:>:,,;*,>,>:-*::;>,-,>2##>,4ww3;:,,-:-,-,<>,2,,,-2%@;**&%970774w2&24",
"&4e60660q%&*;;@%:::,:>,,,:-:;:,-,:0w0<:=#%,,>,,>>:,-*:2::2->>>>,:;;2,2,::*-,:>>,,>,,%#=:<0w0:,-,:;:-:,,,>:,:::%@;;*&%q06606e4&23",
"&2q76707q%=;:*@%,:,,>,>2,,::,::<20w3:-=#=,,:,2,:,;::;;:,>,2,>:>>,;-<,,-,;;::;,:,2,:,,=#=-:3w02<::,::,,2>,>,,:,%@*:;=%q70767q2&:4",
"&2w876809%&**;%%;,:->,->,,-:;,,0w7<:*##-::2:,,,;>::-2:;:;2,*;:::>;,,,:2::2-::>;,,,:2::-##*:<7w0,,;:-,,>-,>-:,;%%;**&%908678w2&:3",
"&4q765679%&;;;%%>-,:,,>,>>,:,2w02,;:##-,>,:;:,>:>:,2,>:;:22*;,,:>:>,:;:,>,2,:>:>,:;:,>,-##:;,20w2,:,>>,>,,:,->%%;;;&%976567q4&:3",
"&4q653509%&:-;%%>:;,:->,-,;<4w7<,-###=,2;:;;>>>>>>,,2;;;:>2;;:,>>>>>>;;:;2,,>>>>>>;;:;2,=###-,<7w4<;,-,>-:,;:>%%;-:&%905356q4&;3",
"&2q885689%$*;-%%,>>:,;:,:,2w042,:##%->22:;:::>,>:>>22:;;;,2-;,>>:>,>:::;:22>>:>,>:::;:22>-%##:,240w2,:,:;,:>>,%%-;*$%986588q2&:3",
"&1e07300e%$*-:=%>>>:>*;>,5w0<>,;##,2,-2>:;;;:,:>>,-2>:,;;>1;-,-,>>:,:;;;:>2-,>>:,:;;;:>2-,2,##;,><0w5,>;*>:>>>%=:-*$%e00370e1&;4",
"&1r663879%$;-,=%>,:>2&;<0w7;:,##%>>-,<2,;;;:;>:>>>,2,;>;:>1-::,>>>:>;:;;;,2,>>>:>;:;;;,2<,->>%##,:;7w0<;&2>:,>%=,-;$%978366r1&:4",
"&1r655809%&-:-=%,,:>,&<ww22:*##%>:-,2>1>;;,>;2>:,>-1>;>;::2-,,->,:>2;>,;;>1->,:>2;>,;;>1>2,-:>%##*:22ww<&,>:,,%=-:-&%908556r1&:4",
"&2y7616ww%$;;,==,>>,,4w02>,###::>>,2>,1>:;>::,>:,,21>:,:>,>:-:2,,:>,::>;:>12,,:>,::>;:>1,>2,>>::###,>20w4,,>>,==,;;$%ww6167y2&:3",
"&4r05150q%$-;:==,>>,7w4>,,###,-::><->,2::;>>:,,>>,22::-::2,;,:2,>>,,:>>;::22,>>,,:>>;::2,>-<>::-,###,,>4w7,>>,==:;-$%q05150r4&,3",
"&3y55157e%&-:,-=>,<00<>,>=#%;>,2>;&;><>,>:,,>2,>>,->,>,>>22,::-,>>,2>,,:>,>-,>>,2>,,:>,><>;&;>2,>;%#=>,><00<,>=-,:-&%e75155y3&25",
"&3i561609%$*-,==,202:>,:##-;:2,,>;&*:2,2::->,,,<,>,,2::<:>::,:,>,<,,,>-::2,,>,<,,,>-::2,2:*&;>,,2:;-##:,>:202,==,-*$%906165i3&,4",
"&1i53169y%%;;:,,70,,:<,%#-,>2,>,>;&;>,22>>,,>,2>:,,22>>,:>>-,,,,:>2,>,,>>22,,:>2,>,,>>22,>;&;>,>,2>,-#%,<:,,07,,:;;%%y96135i1&,3",
"&1u1515we%$**;20w2,:;:;eyyyiiippiiiuuuyyyeeewww00777777770000000000007777777700wwweeeyyyuuuiiippiiiyyye;:;:,2w02;**$%ew5151u1&,5",
"&<e55357e%$--;w4,,;::;,,7700wwweeeyyyuuuiiippiiiyyyeeeweeeeeeeeeeeeeeeeeeeeyyyiiippiiiuuuyyyeeewww0077,,;::;,,4w;--$%e75355e<&>4",
"&>y13150w%&;;-,,::,:,::::,22,>,::;*;>2,>>2,>,>,-;,:,:-,::,22,>,,>,22,::,-:,:,;-,>,>,2>>,2>;*;::,>,22,::::,:,::,,-;;&%w05131y>&:3",
"&<y15368y%$-;:,:,<:,:;>:;:,,,,::;;*:>,2,2,2,>,>,;:>:-,>:;:,,,,::,,,,:;:>,-:>:;,>,>,2,2,2,>:*;;::,,,,:;:>;:,:<,:,:;-$%y86351y<&:4",
"&<u15159y%$*-->,:;:,,,>:::,2,:,>>:*:>22,->,,,2,>:,:,,,>:::,2,:,,:,2,:::>,,,:,:>,2,,,>-,22>:*:>>,:,2,:::>,,,:;:,>--*$%y95151u<&>4",
"&>u43169y%&*;:%@@X@X@@@@X@@@@%%%%%%%%=====%%%%%%%%%%%%%%%%%%%:,,:%%%%%%%%%%%%%%%%%%%=====%%%%%%%%@@@@X@@@@X@X@@%:;*&%y96134u>&:4",
"&,e61388i%$;::%@%%%%%%%%%%%%%%%%%=====%%%%%%%%@@@@X@@@@X@X@%%,22,%%@X@X@@@@X@@@@%%%%%%%%=====%%%%%%%%%%%%%%%%%@%::;$%i88316e,&;4",
"&=05156wi%$-;:@@;;:,>,-:;::-,->:>:;:,2,,,,2>,>-,;-;-::-:;::@@->>-@@::;:-::-;-;,->,>2,,,,2,:;:>:>-,-::;:-,>,:;;@@:;-$%iw65150=&:3",
"&*e665w8u%$;,:@@;;:-,:,;*;:,-,2:>:;>,,,2,>>2,>,:;,;-:;,;*;:@@,22,@@:;*;,;:-;,;:,>,2>>,2,,,>;:>:2,-,:;*;,:,-:;;@@:,;$%u8w566e*&:3",
"&;e6w580e%%*,:@@,;:,,,:;*;:2,2,;>:;::2,,,2,,>,-:;-:;:,:;*;:XX2,,2XX:;*;:,:;:-;:-,>,,2,,,2::;:>;,2,2:;*;:,,,:;,@@:,*%%e085w6e;&;4",
"&;06060wy%&;:;%@,::>,:,;*;:,,->;:>*;,>2,,,>,>,,:;,:,:,,;*;:XX->>-XX:;*;,,:,:,;:,,>,>,,,2>,;*>:;>-,,:;*;,:,>::,@%;:;&%yw06060;&;3",
"&:ew8580y%&:,;%@,:;,,;-;*::2--2:::*;,,,>,>>,:,>::,>-;:-;*::XX-22-XX::*;-:;->,::>,:,>>,>,,,;*:::2--2::*;-;,,;:,@%;,:&%y0858we:&:4",
"&:y0w580u%*-;*505<;;&;:,*;:-,,,:::*:,,,,>>>:,,,;:,,>;,:,*;:XX,,,,XX:;*,:,;>,,:;,,,:>>>,,,,:*:::,,,-:;*,:;&;;<505*;-*%u085w0y:&:4",
"&:e886wwu%*;,;;500:;*;-:;-,-,--:,:;:,2,>,:>>:,-::-,:;*-:;-,XX----XX,-;:-*;:,-::-,:>>:,>,2,:;:,:--,-,-;:-;*;:005;;,;*%uww688e:&:4",
"&>u008wew%*;:;,;<0w5;:;;;,:--,>:;,;:,,,,>:,:>,>,:,::;-;;;,:XX,>>,XX:,;;;-;::,:,>,>:,:>,,,,:;,;:>,--:,;;;:;5w0<;,;:;*%wew800u>&:4",
"&:yw060ww%=-;:-:*,003;:,,-:-,-,;>,:>,:,>,:::-,-,;-:;:;:>,>:XX>,,>XX:>,>:;:;:-;,-,-:::,>,:,>:,>;,-,-:-,,:;300,*:-:;-=%ww060wy:&;4",
"&<e67607e%*;:,%#::<200:,-,:;apappaaaiaapappaaaiappiiaiiiipppisapappaaaiappiiaiiiippiiipippipappi%:;:,-,:002<::#%,:;*%e70676e<&,4",
"&<u06870e%*;:-%###-::702<::,p09607w907609607w9070w070807070770609607w9070w0708070707076880060800%:,::<207::-###%-:;*%e07860u<&:9",
"&1y66807e%&,,:%@%##;:<7w0,,;p6565556656656555665568806568074766656555665568806568060087688860515%:;,,0w7<:;##%@%:,,&%e70866y1&,9",
"&1u009w0e%*::-%@-:##:;,20w2,p0515311114335131111115335356774644335131111115335356767656566087535=:,2w02,;:##:-@%-::*%e0w900u1&-9",
"&3e7708wy%&-;:%@,:-%##-,<7w4p753555365335535536556567856764463335535536556567856760770866658w515&<4w7<,-##%-:,@%:;-&%yw8077e3&,9",
"&1y06807w%$;;,%@,->-%##:,240pw515%%%%%%%%%%%%%%%&%OO%%&%##%%=&%%%%%%%%%%&%OO%%&%##%%%@@@%%%79613%w042,:##%->-,@%,;;$%w70860y1&:9",
"&3yw87w0e%$-;:%@,>-,2,##;,><p9613%*;<,,::;>>:-,->-2:,;,,>,>==2>>2==>,>,,;,:2->-,-:>>;::,,<;p0616%0<>,;##,2,->,@%:;-$%e0w78wy3&,9",
"&1e0w87we%&-:,%@>,<,->>%##,:p0616%&;><>,>:,,>2,>-,-::,>,>,,==>,,>==,,>,>,::-,->,2>,,:>,><>;a7515%;:,##%>>-,<,>@%,:-&%ew78w0e1&29",
"&3qe0987y%$*-,%@,:>2,-:>%##*i7515@&*:2,2::->,,,-,>-:,::>:<2--2,,2--2<:>::,:->,-,,,>-::2,2:*p7515%:*##%>:-,2>:,@%,-*$%y7890eq3&,9",
"&3ewew80i%%;;:%@,>,>2,>>:,%#p6768@2;>,22>>,,>,2>:,,,,->>:,,--,>>,--,,:>>-,,,,:>2,>,,>>22,>;p0515%##%,:>>,2>,>,@%:;;%%i08wewe3&,9",
"&49w9eewy%$**;%@-:,>-<>::-,%i7850@00<<22<2,2,2-,>,-,:,>::-,==,22,==,-::>,:,-,>,-2,2,2<22<<0a7535%#%,-::><->,:-@%;**$%ywee9w94&,9",
"&3e008ewe%$--;%@;;:,>,>::2:,i0067%;0w42,<22,2,>,:-:-,;>::2:=->,,>-=:2::>;,-:-:,>,2,22<,24w0aw515%-,:2::>,>,:;;@%;--$%ewe800e3&>9",
"&4q890www%&;;-%@;;:>,,,::,22i7077%*;7e0>>2,>,>,-;,:,:-,::,2-=>,,>=-2,::,-:,:,;-,>,>,2>>0e7;a9613%,22,::,,,>:;;@%-;;&%www098q4&:9",
"&4980050e%$-;:%#;::,2->:;:,,p0660%*:>2w04470weeyuyyyeeww00744,::,44700wweeyyyuyeew07440w2>:i0616%,,,:;:>-2,::;#%:;-$%e0500894&:9",
"&3w68877e%$*--%%:;:,,,>:::,2p7076##;>22,->,,,2,>:,:,,,>:::,2,:,,:,2,:::>,,,:,:>,2,,,>-,22>;a7515%,2,:::>,,,:;:%%--*$%e77886w3&>9",
"&4e56675y%&*;:%%;::,,,,:;::,i0867#%##2,2,,,2,,,,;,,>--,:;::,,,,,,,,::;:,-->,,;,,,,2,,,2,2##p0515&,,::;:,,,,::;%%:;*&%y57665e4&:9",
"&3w86567u%$;::%%:;:->2:;;;:2i7656%;%##%%%%%%%%%%%%%%%%%%%%%#%,22,%#%%%%%%%%%%%%%%%%%%%%%##%pw616%,2:;;;:2>-:;:%%::;$%u76568w3&;9",
"&2y58536y%$-;:%%;;:,>,-:;::-i0535&;:,%%%%%%%%%%%%%%%%%%%%%%@%->>-%@%%%%%%%%%%%%%%%%%%%%%%,:i0855O,-::;:-,>,:;;%%:;-$%y63585y2&:9",
"&1i71165e%$;,:%%;;:-,:,;*;:,i8658%;>,,,2,>>2,>,:;,;-:;,;*;:@%,22,%@:;*;,;:-;,;:,>,2>>,2,,,>i7836O-,:;*;,:,-:;;%%:,;$%e56117i1&:q",
"&<e03168q%%*,:=%,;:,,,:;*;:2a0037%;::2,,,2,,>,-:;-:;:,:;*;:@%2,,2%@:;*;:,:;:-;:-,>,,2,,,2::a0037%,2:;*;:,,,:;,%=:,*%%q86130e<&;q",
"&<e65116e%&;:;=%,::>,:,;*;:,i7836O*;,>2,,,>,>,,:;,:,:,,;*;:@%->>-%@:;*;,,:,:,;:,,>,>,,,2>,;i8658%,,:;*;,:,>::,%=;:;&%e61156e<&;q",
"&<r07613y%&:,;=%,:;,,;-;*::2i0855O*;,,,>,>>,:,>::,>-;:-;*::@%-22-%@::*;-:;->,::>,:,>>,>,,,;i0535&-2::*;-;,,;:,%=;,:&%y31670r<&:q",
"&1u65536q%*-;*=%;,;;&;:,*;:-pw616%*:,,,,>>>:,,,;:,,>;,:,*;:@%,,,,%@:;*,:,;>,,:;,,,:>>>,,,,:i7656%,-:;*,:;&;;,;%=*;-*%q63556u1&:q",
"&1r65375w%*;,;-%*:;;*;-:;-,-p0515&;:,2,>,:>>:,-::-,:;*-:;-,#%----%#,-;:-*;:,-::-,:>>:,>,2,:i0867#,-,-;:-;*;;:*%-;,;*%w57356r1&:q",
"&<t54370w%*;:;-%&:::;:;;;,:-a7515%;:,,,,>:,:>,,,:,::;-;;;,:=%,>>,%=:,;;;-;::,:,,,>:,:>,,,,:p7076#--:,;;;:;:::&%-;:;*%w07345t<&:q",
"&3r47568w%=-;:-%*-:;*;:,,-:-i0616%:>,:,>,:::-,-,;-:;:;:,,-:=%-,,-%=:-,,:;:;:-;,-,-:::,>,:,>p0660%,-:-,,:;*;:-*%-:;-=%w86574r3&;r",
"&<875335w%*;:,-%;:,;:;;,--:;a9613%;-,:,>,:::,-,-::;*;-;,--:-=-::-=-:--,;-;*;::-,-,:::,>,:,-i7077%:;:--,;;:;,:;%-,:;*%w533578<&,r",
"&1q575460%*;:-,%*:-:;*:-,::;aw515%;,,;,2,>,>:,:,;;***;:-,::,=:--:=,::,-:;***;;,:,:>,>,2,;,,i0067%:;::,-:*;:-:*%,-:;*%064575q1&:r",
"&<r453147%&,,:,%*;,::;:,:--;a7535%:,:*,,,>,:,:,::;*&*-:,-;-2--;;--2-;-,:-*&*;::,:,:,>,,,*:,i7850@:;--:,:;::,;*%,:,,&%741354r<&-8",
"&<y733>17%*:::2%&::,;;:--,-*p0513%;,:;>>:>,:-,-,;:*&;;:;-,-2,,>>,,2-,-;:;;&*:;,-,-:,>:>>;:,p6768@:*-,--:;;,::&%2:::*%71>337y<&-8",
"&3u7<3><7%&-;:2,2224777000wwp6655%0777444477000wwwweeeyyyee42;,,;24eeyyyeeewwww000774444777i8656@www0007774222,2:;-&%7<>3<7u3&,8",
"&<r414>37$*--;7weeyyyeeewwwwa9535%44477700000wwww0007774222,2;::;2,2224777000wwww0000077744p8866%0wwwweeeyyyeew7;--*$73>414r<&-9",
"&1q1152<4%*;::&&&;--,;-:;-:*p0633%>,:;,>,::,>;>,:,:*;--::::*:*;;*:*::::--;*:,:,>;>,::,>,;:,p0866%:*:-;:-;,--;&&&::;*%4<2511q1&,9",
"&<e72<<21%*;**&**;-:-:,;,-,*a6643%:,:;,:,>:,,:,>,:;*;-;:-;,*;*,,*;*,;-:;-;*;:,>,:,,:>,:,;:,i0805%;*,-,;,:-:-;**&**;*%12<<27e<&:5"
};
